<svg width="22" height="23" viewBox="0 0 22 23" fill="none" xmlns="http://www.w3.org/2000/svg">
<path d="M21.5953 20.0131C21.7025 20.0131 21.8057 19.9706 21.8816 19.8947C21.9575 19.8188 22 19.7156 22 19.6084V0.404712C21.9879 0.18718 21.8128 0.0121478 21.5953 0H0.404712C0.185155 0.00910595 0.00911735 0.185155 0 0.404712V7.56002C0.00404712 7.78058 0.184145 7.95766 0.404712 7.95766C0.625279 7.95766 0.805383 7.7806 0.809424 7.56002V1.27785L2.38781 2.61544V20.0485L0.809424 21.3861V9.27605C0.806388 9.05548 0.626292 8.87739 0.404712 8.87739C0.184145 8.87739 0.00404064 9.05547 0 9.27605V22.2592C0.00809424 22.4798 0.184145 22.6568 0.404712 22.6639H21.5953C21.7622 22.6578 21.9079 22.5516 21.9656 22.3948C22.0223 22.2379 21.9798 22.0629 21.8563 21.9506L19.6122 20.0485V2.61541L21.1906 1.27783V19.6084C21.1906 19.7156 21.2331 19.8188 21.309 19.8947C21.3848 19.9706 21.488 20.0131 21.5953 20.0131ZM19.0587 2.0237H4.94939C4.72579 2.0237 4.54468 2.2048 4.54468 2.42841C4.54468 2.65201 4.72579 2.83312 4.94939 2.83312H18.8026V19.831H14.5894C14.3658 19.831 14.1847 20.0121 14.1847 20.2357C14.1847 20.4593 14.3658 20.6404 14.5894 20.6404H19.0585L20.4901 21.8546H1.50819L2.93984 20.6404H12.8736C13.0952 20.6374 13.2733 20.4573 13.2733 20.2357C13.2733 20.0141 13.0952 19.834 12.8736 19.831H3.19705V2.42828C3.18794 2.31192 3.13735 2.20164 3.05337 2.11969L1.5084 0.809431H20.4914L19.0587 2.0237Z" fill="#002365"/>
<path d="M5.23362 18.2158C4.74797 17.7666 4.57292 17.0725 4.78741 16.4462C5.15571 15.5093 5.67677 14.6392 6.32835 13.8712C6.40018 14.1333 6.76241 15.2108 6.8656 15.4729V18.4627C6.86863 18.6843 7.04873 18.8614 7.27031 18.8614C7.49189 18.8614 7.67199 18.6843 7.67502 18.4627V16.5636C9.21293 17.7717 10.9036 16.9916 12.5771 16.0324L12.8979 15.8614C13.0901 15.7542 13.162 15.5123 13.0578 15.3171C12.9545 15.1228 12.7138 15.0469 12.5175 15.1471C11.3964 15.7279 10.2389 16.5079 9.17047 16.3531C8.38837 16.2651 7.31486 15.5245 7.8339 14.6483C8.08887 14.026 8.52089 13.4918 9.07637 13.1134C9.53978 12.8675 9.87062 12.4295 9.98293 11.9175C10.8763 11.9974 11.7637 11.705 12.4334 11.1081C13.2054 12.1269 15.2684 15.2593 13.9198 18.1074C13.8277 18.3088 13.9147 18.5455 14.114 18.6406C14.3143 18.7358 14.5531 18.6518 14.6503 18.4535C16.2681 15.0358 13.7498 11.459 12.9768 10.4836C13.3238 9.95237 13.508 9.33215 13.509 8.69878L15.2654 8.96995C15.3312 9.34935 15.3767 9.73283 15.404 10.1183C15.5194 11.5813 15.9261 13.0069 16.6 14.3102C17.6502 16.6434 17.2252 18.1478 17.2222 18.161C17.1605 18.3735 17.2799 18.5961 17.4913 18.6608C17.7028 18.7266 17.9264 18.6102 17.9952 18.3998C18.0175 18.328 18.5244 16.613 17.3396 13.9805C16.3764 12.2675 16.2782 10.4301 16.0051 8.52302C15.6064 5.76502 13.4361 3.54707 10.5385 3.79909C9.84142 3.86283 8.94903 3.75356 8.28934 3.98829C5.17908 5.21256 5.68701 10.2381 6.10188 12.9264V12.9254C5.19936 13.8481 4.49619 14.9459 4.0348 16.1509C3.70901 17.0403 3.92654 18.0369 4.59228 18.7097C4.72989 18.8827 4.98081 18.9131 5.15585 18.7775C5.33089 18.6429 5.36515 18.3929 5.23362 18.2158ZM14.6685 6.99008C14.8375 7.3543 14.9741 7.73273 15.0763 8.12125L13.4139 7.86426V7.86527C13.3613 7.65178 13.2884 7.44538 13.1974 7.24607L14.6685 6.99008ZM13.0618 5.14358C13.5293 5.41778 13.9279 5.79415 14.2274 6.24541L12.7502 6.5024C12.6359 6.35569 12.5094 6.21909 12.3728 6.09365L13.0618 5.14358ZM12.304 4.80867L11.705 5.63429C11.2679 5.41979 10.7883 5.30446 10.3017 5.29736L10.2663 4.64174H10.2652C10.9492 4.5608 11.6433 4.61746 12.305 4.80868L12.304 4.80867ZM9.87471 6.1088C10.7631 6.01369 11.6362 6.38906 12.1795 7.09731C12.7229 7.80657 12.8584 8.74752 12.5357 9.58021C12.1239 10.8207 10.3553 11.5603 9.24748 10.848C7.75713 9.93938 8.10416 7.62839 8.11126 7.57478C8.12239 7.13567 8.32272 6.72285 8.66066 6.44159C8.99859 6.16032 9.44065 6.04001 9.87471 6.1088ZM7.94323 5.08893C8.36919 4.74897 8.9105 4.58608 9.45482 4.63363L9.49125 5.30749V5.30647C8.83156 5.34391 8.2164 5.65148 7.78944 6.15535L7.33212 5.82044C7.48793 5.54119 7.69533 5.29228 7.94323 5.08893ZM7.0043 6.58332L7.42318 6.88989L7.42419 6.8909C7.30885 7.29965 7.2532 7.72358 7.25927 8.14855L6.66232 8.49965C6.6947 7.84908 6.80903 7.20454 7.0043 6.58332ZM6.63803 9.45269L7.31996 9.05202C7.42013 10.0658 7.97457 10.9805 8.8265 11.539C8.94286 11.6098 9.06528 11.6705 9.19073 11.7221C9.13508 12.0155 8.9479 12.2675 8.68384 12.4061C8.04844 12.8027 7.54152 13.3754 7.22384 14.0543C6.75337 12.568 6.55506 11.0089 6.63803 9.45269Z" fill="#002365"/>
</svg>
