<svg width="60" height="72" viewBox="0 0 60 72" fill="none" xmlns="http://www.w3.org/2000/svg">
<path d="M29.831 6.41151C29.8651 6.20281 29.8154 5.98789 29.6912 5.81658C29.5669 5.64526 29.3805 5.53001 29.1723 5.49575C26.8857 5.13131 24.5586 5.07836 22.2596 5.34312C16.8258 6.01593 11.7618 8.4517 7.83749 12.2768C3.91354 16.1049 1.34415 21.1135 0.520884 26.5398C-0.687654 34.6542 2.1955 42.8427 8.21345 48.4029C9.22935 49.3499 9.80415 50.6737 9.80415 52.0629C9.80415 54.8569 11.2674 57.4484 13.6535 58.8906C13.5914 59.0027 13.5603 59.1273 13.5572 59.2581C13.4764 62.4103 14.6663 65.4598 16.8628 67.7178C19.0562 69.9791 22.0699 71.25 25.214 71.25C28.3581 71.25 31.3718 69.9791 33.5652 67.7178C35.7617 65.4595 36.9517 62.4101 36.8709 59.2581C36.8678 59.1273 36.8336 58.9996 36.7652 58.8906C39.1544 57.4484 40.6146 54.8569 40.6146 52.0629C40.6208 50.6705 41.1956 49.3436 42.2053 48.3873C46.8127 44.1106 49.6244 38.2332 50.0718 31.9537C50.1029 31.5145 49.7735 31.1314 49.3324 31.1002C48.8943 31.0691 48.5122 31.4024 48.4811 31.8416C48.0586 37.7193 45.4239 43.2173 41.1179 47.2226C39.785 48.481 39.0301 50.2315 39.0332 52.0631C39.0332 53.7576 38.3621 55.3772 37.169 56.5765C35.976 57.7726 34.3573 58.4423 32.6704 58.4423H25.972V32.6703C25.972 31.3497 27.0408 30.2781 28.358 30.2781C29.6785 30.2781 30.7441 31.3497 30.7441 32.6703V36.8255C30.7441 37.2678 31.1014 37.6229 31.5395 37.6229C31.9806 37.6229 32.3348 37.2678 32.3348 36.8255V32.6703C32.3348 30.9572 31.2412 29.4309 29.6163 28.8889C27.9945 28.3469 26.205 28.9076 25.1766 30.2781C24.1514 28.9075 22.3618 28.3469 20.7401 28.8889C19.1152 29.4309 18.0185 30.9572 18.0185 32.6703V36.8255C18.0185 37.2678 18.3758 37.6229 18.8138 37.6229C19.255 37.6229 19.6092 37.2678 19.6092 36.8255V32.6703C19.6092 31.3497 20.678 30.2781 21.9952 30.2781C23.3157 30.2781 24.3813 31.3497 24.3813 32.6703V58.4614H17.7419C14.2281 58.4614 11.3791 55.6051 11.3791 52.0822C11.3884 50.2569 10.6428 48.5095 9.31931 47.2573C3.68353 42.0461 0.98641 34.3809 2.11144 26.7801C2.87572 21.6998 5.27734 17.0088 8.94653 13.4268C12.6188 9.84164 17.3566 7.56156 22.4429 6.93241C24.5959 6.68322 26.7738 6.73306 28.9175 7.07569C29.1257 7.10996 29.34 7.06012 29.5109 6.93553C29.6818 6.81093 29.7968 6.62331 29.831 6.41151ZM17.7424 60.055H32.6147C33.5064 60.0519 34.3918 59.9024 35.2307 59.6064C35.0785 65.0605 30.6232 69.4025 25.183 69.4025C19.7398 69.4025 15.2849 65.0604 15.1322 59.6064C15.971 59.9024 16.8539 60.0519 17.7424 60.055ZM45.5241 0.25C41.8829 0.25 38.3907 1.6984 35.8184 4.28062C33.2428 6.85973 31.795 10.3608 31.795 14.0113C31.795 17.6619 33.2428 21.163 35.8184 23.742C38.3909 26.3242 41.8829 27.7757 45.5241 27.7757C49.1653 27.7757 52.6574 26.3242 55.2297 23.742C57.8053 21.1628 59.25 17.6618 59.25 14.0113C59.2438 10.3638 57.796 6.86587 55.2235 4.287C52.651 1.70812 49.1619 0.25622 45.5241 0.25ZM45.5241 26.1814C42.3053 26.1814 39.2172 24.8981 36.943 22.6149C34.6657 20.3348 33.3856 17.2387 33.3856 14.0118C33.3856 10.7848 34.6657 7.68862 36.943 5.40862C39.2172 3.12542 42.3054 1.8452 45.5241 1.8452C48.7428 1.8452 51.831 3.12542 54.1051 5.40862C56.3824 7.6887 57.6594 10.7848 57.6594 14.0118C57.6563 17.2388 56.3762 20.3318 54.102 22.6117C51.8247 24.8918 48.7426 26.1752 45.5241 26.1814ZM8.75494 30.3678C8.76115 33.7381 9.79884 37.0242 11.722 39.7899C13.6483 42.5527 16.3699 44.6584 19.5233 45.8264C19.8899 45.9604 20.1043 46.3372 20.0359 46.7204C19.9676 47.1004 19.632 47.3776 19.2468 47.3745C19.1536 47.3745 19.0635 47.3589 18.9765 47.3278C13.6327 45.3655 9.52532 40.9891 7.90041 35.5223C6.27861 30.0526 7.32564 24.1378 10.7277 19.5647C14.1296 14.9921 19.4892 12.3009 25.1776 12.304C25.886 12.3164 26.5943 12.3725 27.2934 12.4722C27.5047 12.4971 27.6973 12.603 27.8278 12.7681C27.9583 12.9363 28.0204 13.1481 27.9955 13.3568C27.9396 13.7929 27.545 14.1012 27.1132 14.0514C26.4701 13.9767 25.8238 13.9393 25.1776 13.9393C20.8312 13.9455 16.665 15.6774 13.5862 18.7549C10.5104 21.8323 8.77054 26.0062 8.75503 30.3666L8.75494 30.3678ZM42.4055 30.9253C42.6167 30.9409 42.8125 31.0406 42.9523 31.2026C43.089 31.3645 43.1573 31.5732 43.1387 31.785C42.8933 35.0557 41.7592 38.1923 39.861 40.865C37.9658 43.5345 35.3778 45.6339 32.3765 46.9359C32.2771 46.9826 32.1684 47.0075 32.0597 47.0075C31.7428 47.0106 31.4538 46.8206 31.3264 46.5309C31.2425 46.3347 31.2394 46.1167 31.3171 45.9173C31.3948 45.7211 31.547 45.5622 31.7396 45.4781C34.4768 44.2883 36.8348 42.3727 38.5653 39.9368C40.2959 37.501 41.3274 34.6385 41.5541 31.6574C41.5883 31.2214 41.9705 30.8942 42.4055 30.9253ZM46.7178 9.43622L44.4281 12.1461C43.0362 10.7943 40.8366 10.7631 39.4074 12.0713C37.9751 13.3796 37.8043 15.5755 39.0191 17.0894L41.5946 20.2074C42.2906 21.0453 43.3159 21.5343 44.4032 21.5406C45.503 21.5561 46.55 21.0764 47.2583 20.2323L52.3567 14.1708C53.093 13.4482 53.4938 12.4483 53.4565 11.4142C53.4192 10.3801 52.9501 9.41138 52.1641 8.74165C51.378 8.07196 50.3465 7.76667 49.3244 7.89752C48.3022 8.03146 47.3796 8.58902 46.7892 9.43626L46.7178 9.43622ZM51.1015 13.1429L46.0032 19.2044C45.6086 19.6747 45.0245 19.9457 44.4125 19.9457C43.7942 19.9426 43.2132 19.6654 42.8218 19.1888L40.2462 16.0708H40.2431C39.6155 15.1831 39.7739 13.9621 40.6066 13.2644C41.4423 12.5697 42.6696 12.6352 43.4245 13.4139L43.8129 13.8935H43.816C43.9651 14.0742 44.1888 14.1801 44.428 14.1801C44.661 14.177 44.8816 14.0742 45.0307 13.8935L47.9263 10.4641C48.6657 9.58257 49.9737 9.46734 50.853 10.2087C51.7322 10.9469 51.8471 12.2613 51.1077 13.1429L51.1015 13.1429Z" fill="#002365" stroke="#002365" stroke-width="0.5"/>
</svg>
