<svg width="73" height="73" viewBox="0 0 73 73" fill="none" xmlns="http://www.w3.org/2000/svg">
<path d="M72.1092 16.2294H53.0969L37.1287 0.261136C36.9625 0.0949586 36.737 0 36.4996 0H17.0954C16.6028 0 16.2051 0.397641 16.2051 0.890256V19.9268L0.261194 35.8707C0.10095 36.031 0.00896132 36.2476 0.00302831 36.4731H6.10352e-05V55.8211C6.10352e-05 56.3137 0.397702 56.7114 0.890317 56.7114H19.8433L35.8708 72.7389C36.037 72.905 36.2625 73 36.4999 73H55.9011C56.3937 73 56.7913 72.6024 56.7913 72.1097V53.0762L72.7383 37.1293C72.9045 36.9631 72.9994 36.7376 72.9994 36.5002V17.1195C72.9994 16.6269 72.6018 16.2294 72.1092 16.2294ZM17.9858 1.78047H34.3513L32.1287 4.00015H20.698C20.2083 4.00015 19.8077 4.40075 19.8077 4.89041V16.3211L17.9857 18.1461L17.9858 1.78047ZM30.3509 5.78058L21.5912 14.5403L21.5882 5.78058H30.3509ZM1.78055 54.9304V38.6477L3.82216 40.6893V51.7045C3.82216 52.1971 4.2198 52.5947 4.71241 52.5947H15.7306L18.0631 54.9271L1.78055 54.9304ZM5.60259 50.8145V42.4703L13.9498 50.8176L5.60259 50.8145ZM55.0107 71.2185H38.6482L40.7847 69.0819H51.9276C52.4202 69.0819 52.8178 68.6842 52.8178 68.1916V57.0488L55.0108 54.8559L55.0107 71.2185ZM42.565 67.3014L51.0369 58.8296V67.3014H42.565ZM36.4995 70.8505L2.14807 36.4991L36.4995 2.14762L70.851 36.4991L36.4995 70.8505ZM58.9037 22.0327H67.1203V30.2523L58.9037 22.0327ZM71.2187 34.3507L68.9011 32.0331V21.1425C68.9011 20.6529 68.5034 20.2523 68.0108 20.2523H57.1232L54.8769 18.0059L71.2189 18.0089L71.2187 34.3507Z" fill="#002365"/>
<path d="M35.8708 6.63638L6.5848 35.9224C6.2376 36.2696 6.2376 36.8334 6.5848 37.1805L35.8708 66.4665C36.037 66.6357 36.2625 66.7277 36.4999 66.7277C36.7373 66.7277 36.9628 66.6357 37.129 66.4665L66.415 37.1805C66.7622 36.8333 66.7622 36.2695 66.415 35.9224L37.129 6.63638C36.9628 6.4702 36.7373 6.37524 36.4999 6.37524C36.2625 6.37524 36.037 6.4702 35.8708 6.63638ZM64.5278 36.5514L36.4998 64.5794L8.47181 36.5514L36.4998 8.5234L64.5278 36.5514Z" fill="#002365"/>
</svg>
