<svg width="19" height="22" viewBox="0 0 19 22" fill="none" xmlns="http://www.w3.org/2000/svg">
<path d="M17.6007 16.3626L15.2714 15.2748C15.0937 15.1915 14.8826 15.2674 14.8002 15.4452C14.7169 15.6229 14.7928 15.834 14.9705 15.9164L17.2998 17.0042C17.4424 17.0708 17.5275 17.2032 17.5275 17.3625C17.5275 17.5217 17.4424 17.6513 17.2998 17.7179L10.1927 21.0388C9.5104 21.3563 8.72812 21.3563 8.04583 21.0388L0.938736 17.7179C0.796168 17.6513 0.710996 17.5189 0.710996 17.3625C0.710996 17.206 0.796166 17.0708 0.938736 17.0042L3.26797 15.9164C3.44572 15.8331 3.52163 15.6229 3.43832 15.4452C3.355 15.2674 3.14484 15.1897 2.96709 15.2748L0.637856 16.3626C0.244392 16.545 0 16.9292 0 17.3625C0 17.7957 0.244392 18.1799 0.637856 18.3623L7.74495 21.6831C8.18097 21.8868 8.65035 21.9886 9.11972 21.9886C9.5891 21.9886 10.0584 21.8868 10.4945 21.6831L17.6016 18.3623C17.9951 18.1799 18.2394 17.7957 18.2394 17.3625C18.2394 16.9292 17.9951 16.545 17.6016 16.3626H17.6007Z" fill="#002365"/>
<path d="M4.22695 17.3176C4.22695 17.3176 4.23158 17.3389 4.23436 17.3509C4.23713 17.363 4.24176 17.3722 4.24361 17.3843C4.24824 17.3963 4.25287 17.4056 4.2575 17.4176C4.26213 17.4268 4.26676 17.4361 4.27416 17.4463C4.28157 17.4555 4.2862 17.4648 4.29268 17.475C4.30009 17.4842 4.30657 17.4935 4.31397 17.5009C4.32138 17.5102 4.33064 17.5176 4.3399 17.525C4.34915 17.5324 4.35656 17.5389 4.36582 17.5463C4.37507 17.5537 4.38711 17.5602 4.39914 17.5676C4.40655 17.5703 4.41118 17.575 4.41581 17.5796L8.94934 19.845C8.94934 19.845 8.95397 19.845 8.9586 19.8477C8.97248 19.8551 8.9873 19.8598 8.99933 19.8644C9.00674 19.8644 9.01322 19.869 9.01785 19.8718C9.02248 19.8718 9.02525 19.8746 9.02988 19.8746C9.05118 19.8792 9.07525 19.882 9.09654 19.882H9.1058H9.11505C9.13635 19.882 9.16042 19.8792 9.18171 19.8746C9.18634 19.8746 9.18912 19.8718 9.19375 19.8718C9.20115 19.8718 9.20763 19.8672 9.21226 19.8644C9.22615 19.8598 9.24096 19.8551 9.253 19.8477C9.25577 19.8477 9.25762 19.8477 9.26225 19.845L13.7958 17.5796C13.7958 17.5796 13.8078 17.5722 13.8124 17.5676C13.8245 17.5602 13.8365 17.5537 13.8458 17.5463C13.855 17.5389 13.8624 17.5324 13.8717 17.525C13.881 17.5176 13.8884 17.5083 13.8976 17.5009C13.905 17.4916 13.9115 17.4842 13.9189 17.475C13.9263 17.4657 13.9328 17.4565 13.9374 17.4463C13.9421 17.437 13.9495 17.4278 13.9541 17.4176C13.9587 17.4083 13.9633 17.3963 13.968 17.3843C13.9726 17.375 13.9754 17.363 13.9772 17.3509C13.98 17.3389 13.9819 17.3296 13.9846 17.3176C13.9846 17.3056 13.9874 17.2917 13.9893 17.2796V17.2584L13.9911 2.71806C14.0383 2.55698 13.9671 2.37645 13.8106 2.2987L9.28441 0.0333278C9.28441 0.0333278 9.27052 0.028699 9.26312 0.0259216C9.25108 0.0212928 9.23905 0.0166638 9.22794 0.012035C9.2159 0.00925761 9.20387 0.00740618 9.19276 0.00462881C9.18072 0.00462881 9.17147 0 9.15943 0H9.12425H9.09092C9.07889 0 9.06685 0.0046288 9.05297 0.00740618C9.04371 0.00740618 9.03167 0.012035 9.02241 0.0148124C9.00853 0.0194412 8.99649 0.02407 8.98446 0.028699C8.97705 0.0314762 8.97242 0.0333278 8.96594 0.0361052L4.43241 2.30147C4.38057 2.3274 4.33798 2.36535 4.3065 2.41071C4.30188 2.41812 4.29447 2.4246 4.28984 2.43201C4.28243 2.44126 4.27595 2.4533 4.26855 2.46534C4.26577 2.47274 4.26114 2.47737 4.25651 2.482C4.25651 2.48478 4.25651 2.48941 4.25188 2.49126C4.24726 2.50329 4.24263 2.51533 4.238 2.52922C4.23522 2.53847 4.23059 2.55051 4.22874 2.55977C4.22596 2.5718 4.22411 2.58106 4.22411 2.59309C4.22411 2.60513 4.22133 2.61902 4.21948 2.63105V2.64031V17.2609V17.2822C4.21948 17.2943 4.21948 17.3082 4.22411 17.3202L4.22695 17.3176ZM4.93055 9.0606L8.75309 10.9705V13.1007L4.93055 11.1908V9.0606ZM9.46692 10.9705L13.2895 9.0606V11.1908L9.46692 13.1007V10.9705ZM13.2904 8.26632L9.46787 10.1762V8.04599L13.2904 6.13612V8.26632ZM8.75593 10.1743L4.93339 8.26448V6.13427L8.75593 8.04414V10.1743ZM4.93055 11.9852L8.75309 13.895V16.0252L4.93055 14.1154V11.9852ZM9.46692 13.895L13.2895 11.9852V14.1154L9.46692 16.0252V13.895ZM13.2904 5.34177L9.46787 7.25164V5.12144L13.2904 3.21156V5.34177ZM8.75593 7.25164L4.93339 5.34177V3.21156L8.75593 5.12144V7.25164ZM7.1849 18.1637L6.27208 17.7082V17.0778L7.1849 17.5351V18.1656V18.1637ZM7.69963 16.9973L6.07582 16.1817C5.96472 16.127 5.8342 16.1317 5.72959 16.1955C5.62497 16.2594 5.5611 16.3761 5.5611 16.4992V17.3527L4.93063 17.038V14.9078L8.75317 16.8177V18.9479L7.89313 18.5192V17.3157C7.89313 17.1806 7.81722 17.0574 7.69687 16.9982L7.69963 16.9973ZM9.46692 16.8195L13.2895 14.9096V17.0398L9.46692 18.9497V16.8195ZM9.12624 0.74892L12.8774 2.62362L9.10965 4.50571L5.35845 2.63101L9.12624 0.74892Z" fill="#002365"/>
</svg>
