<svg width="23" height="19" viewBox="0 0 23 19" fill="none" xmlns="http://www.w3.org/2000/svg">
<path d="M9.68645 7.07739H5.96089C5.75505 7.07739 5.58834 7.24411 5.58834 7.44995V14.5286H0.372556C0.166719 14.5286 0 14.6953 0 14.9012V17.8816C0 18.4982 0.501096 18.9993 1.11767 18.9993H8.94122C9.55779 18.9993 10.0589 18.4982 10.0589 17.8816V7.45007C10.0589 7.24423 9.89228 7.07739 9.68645 7.07739ZM9.31389 17.8814C9.31389 18.0872 9.14717 18.2539 8.94134 18.2539H1.11779C0.91195 18.2539 0.745231 18.0872 0.745231 17.8814V15.2734H5.96101C6.16685 15.2734 6.33357 15.1067 6.33357 14.9008V7.82215H9.31401L9.31389 17.8814Z" fill="#002365"/>
<path d="M15.2749 15.9711C15.0691 15.9711 14.9023 16.1378 14.9023 16.3437V17.8823C14.9023 18.0882 14.7356 18.2549 14.5298 18.2549H11.9218V5.58799C11.9218 5.38215 11.7551 5.21543 11.5492 5.21543H4.09811C3.89228 5.21543 3.72556 5.38215 3.72556 5.58799V12.6667H0.745111V2.98022C0.745111 2.77438 0.91183 2.60766 1.11767 2.60766H14.5297C14.7355 2.60766 14.9022 2.77438 14.9022 2.98022V6.97401C14.9022 7.17985 15.0689 7.34657 15.2748 7.34657C15.4806 7.34657 15.6473 7.17985 15.6473 6.97401V2.98022C15.6473 2.36365 15.1462 1.86255 14.5297 1.86255H1.11767C0.501096 1.86255 0 2.36365 0 2.98022V13.0393C0 13.2452 0.166719 13.4119 0.372556 13.4119H4.09811C4.30395 13.4119 4.47067 13.2452 4.47067 13.0393V5.96066H11.1767V18.6276C11.1767 18.8334 11.3434 19.0001 11.5492 19.0001H14.5297C15.1462 19.0001 15.6473 18.499 15.6473 17.8824V16.3438C15.6473 16.138 15.4807 15.9711 15.2749 15.9711Z" fill="#002365"/>
<path d="M21.7004 0.149697L21.6455 0.124549C21.0885 -0.156734 20.4011 0.0528321 20.0826 0.607929L15.6296 8.64035C15.5038 8.69157 15.3064 8.77819 15.0875 8.90487C14.0024 9.53541 13.5824 10.4221 13.9037 11.4001C14.4588 13.0813 14.6945 13.9213 13.9838 14.6292C13.8804 14.7326 13.846 14.8872 13.8972 15.0241C13.9484 15.161 14.0751 15.2551 14.2213 15.2654C14.2297 15.2654 14.3163 15.2719 14.4588 15.2719C14.6572 15.2719 14.9655 15.2607 15.3259 15.2104C16.221 15.0865 17.4346 14.7158 18.135 13.655C18.7236 12.7627 18.8251 11.5556 18.446 10.0692L22.2488 1.69506C22.2498 1.69413 22.2498 1.6932 22.2507 1.69227C22.5068 1.11294 22.2695 0.437512 21.7004 0.149697ZM17.513 13.2451C16.9663 14.0731 15.966 14.3692 15.2236 14.4726C15.1379 14.4847 15.056 14.494 14.9778 14.5006C15.4062 13.571 15.0458 12.4794 14.6117 11.1672C14.4059 10.5413 14.6918 9.99646 15.4611 9.5494C15.6213 9.45719 15.7676 9.3892 15.8691 9.34729L17.7365 10.2889C18.0532 11.5472 17.9778 12.541 17.513 13.2451ZM21.5702 1.38932L17.8764 9.52403L16.4038 8.78171L20.7319 0.973897C20.8511 0.767128 21.1054 0.686105 21.3187 0.794138L21.3736 0.819286C21.5786 0.923601 21.6652 1.17325 21.5702 1.38932Z" fill="#002365"/>
</svg>
