<svg width="67" height="73" viewBox="0 0 67 73" fill="none" xmlns="http://www.w3.org/2000/svg">
<path d="M65.6726 72.4999H0.962217C0.706919 72.4999 0.5 72.2924 0.5 72.0364V33.4098C0.5 33.2508 0.58135 33.1028 0.715393 33.0178C0.849436 32.933 1.01768 32.9229 1.16097 32.9912L33.3174 48.347L65.4739 32.9912C65.6172 32.9231 65.7853 32.9328 65.9195 33.0178C66.0537 33.1028 66.1349 33.2508 66.1349 33.4098V72.0364C66.1349 72.2924 65.9279 72.4999 65.6726 72.4999ZM1.42443 71.5729H65.2104V34.1439L33.5162 49.279C33.3905 49.3391 33.2444 49.3391 33.1187 49.279L1.42443 34.1439V71.5729Z" fill="#002365" stroke="#002365"/>
<path d="M57.9695 37.5522C57.7142 37.5522 57.5073 37.3447 57.5073 37.0887V1.42704H9.12854V37.0887C9.12854 37.3447 8.92162 37.5522 8.66632 37.5522C8.41102 37.5522 8.2041 37.3447 8.2041 37.0887V0.963519C8.2041 0.707502 8.41102 0.5 8.66632 0.5H57.9695C58.2248 0.5 58.4317 0.707502 58.4317 0.963519V37.0887C58.4317 37.3447 58.2248 37.5522 57.9695 37.5522Z" fill="#002365" stroke="#002365"/>
<path d="M65.6736 33.8734C65.5294 33.8734 65.3873 33.8059 65.297 33.6794L57.5934 22.8639C57.445 22.6555 57.4933 22.3659 57.701 22.2171C57.9086 22.0685 58.1972 22.1167 58.3458 22.3248L66.0494 33.1403C66.1977 33.3487 66.1495 33.6383 65.9418 33.787C65.8605 33.8453 65.7667 33.8734 65.6736 33.8734Z" fill="#002365" stroke="#002365"/>
<path d="M0.961875 33.8735C0.868816 33.8735 0.774985 33.8453 0.693635 33.7871C0.485946 33.6383 0.437721 33.3488 0.586092 33.1403L8.28971 22.3249C8.43809 22.1166 8.72666 22.0685 8.93451 22.2172C9.1422 22.366 9.19042 22.6555 9.04205 22.8639L1.33843 33.6794C1.24799 33.8059 1.10609 33.8735 0.961875 33.8735Z" fill="#002365" stroke="#002365"/>
<path d="M65.6728 72.4998C65.5545 72.4998 65.4361 72.4546 65.346 72.364L49.1684 56.1408C48.9878 55.9599 48.9878 55.6663 49.1684 55.4854C49.3488 55.3043 49.6415 55.3043 49.822 55.4854L65.9996 71.7086C66.1801 71.8895 66.1801 72.1831 65.9996 72.364C65.9094 72.4546 65.7911 72.4998 65.6728 72.4998Z" fill="#002365" stroke="#002365"/>
<path d="M0.962217 72.4998C0.843889 72.4998 0.725562 72.4546 0.63543 72.364C0.454857 72.1831 0.454857 71.8895 0.63543 71.7086L16.813 55.4854C16.9935 55.3043 17.2862 55.3043 17.4666 55.4854C17.6472 55.6663 17.6472 55.9599 17.4666 56.1408L1.289 72.364C1.19887 72.4546 1.08054 72.4998 0.962217 72.4998Z" fill="#002365" stroke="#002365"/>
<path d="M37.4097 8.55344C37.1773 8.54977 36.9435 8.59397 36.6951 8.64715C36.2978 8.73242 35.8728 8.86649 35.4481 9.00632C35.0233 9.14588 34.6047 9.28931 34.2494 9.39671C33.8941 9.50418 33.5817 9.56818 33.4819 9.56836C33.3819 9.56833 33.0764 9.50748 32.7209 9.40057C32.3654 9.29365 31.9425 9.14903 31.5175 9.01016C31.0925 8.87133 30.6622 8.73301 30.2648 8.64817C29.8673 8.56327 29.5138 8.5 29.1352 8.6236C28.7566 8.74702 28.5062 9.0123 28.235 9.31548C27.9637 9.61835 27.6923 9.97968 27.4305 10.3427C27.1688 10.7057 26.9168 11.0701 26.6923 11.3661C26.4679 11.6621 26.2509 11.8918 26.1702 11.9507C26.0888 12.0081 25.8057 12.1488 25.4548 12.2701C25.1039 12.3917 24.6786 12.5181 24.2532 12.6558C23.8279 12.7937 23.4039 12.9393 23.0326 13.1048C22.6613 13.2702 22.3402 13.4284 22.1068 13.752C21.873 14.0747 21.8224 14.435 21.7808 14.8398C21.7392 15.2447 21.7341 15.6912 21.7353 16.139C21.7366 16.5868 21.7441 17.0315 21.7363 17.4031C21.7284 17.7748 21.6903 18.0916 21.6595 18.1868C21.6287 18.282 21.4765 18.5519 21.2653 18.8577C21.0541 19.1633 20.7847 19.523 20.5215 19.8849C20.2582 20.2468 19.998 20.6128 19.7947 20.9652C19.5913 21.3175 19.4219 21.6409 19.4222 22.0397C19.4226 22.4385 19.5926 22.7575 19.7965 23.1096C20.0005 23.4616 20.2595 23.8255 20.5233 24.187C20.7871 24.5485 21.0555 24.9042 21.2672 25.2095C21.479 25.5148 21.6324 25.7891 21.6633 25.8842C21.6942 25.9795 21.7364 26.2944 21.7448 26.666C21.7532 27.0376 21.7453 27.4832 21.7448 27.931C21.7443 28.3788 21.747 28.8263 21.7893 29.2311C21.8316 29.6359 21.88 29.9937 22.1143 30.3161C22.3487 30.6386 22.6771 30.7996 23.0487 30.9643C23.4203 31.129 23.8436 31.2716 24.2692 31.4087C24.6948 31.5459 25.1222 31.6769 25.4726 31.7991C25.8232 31.9216 26.1073 32.0522 26.1881 32.1109C26.269 32.1698 26.4844 32.4008 26.7093 32.6965C26.9342 32.9922 27.1908 33.3554 27.4531 33.718C27.7155 34.0806 27.983 34.4455 28.2548 34.7481C28.5266 35.0507 28.7781 35.3084 29.1569 35.4313C29.5357 35.5542 29.8939 35.4913 30.2912 35.4056C30.6886 35.3202 31.1136 35.1873 31.5383 35.0475C31.9631 34.9079 32.3817 34.7635 32.737 34.6561C33.0923 34.5486 33.4047 34.4846 33.5045 34.4844C33.6044 34.4845 33.9109 34.5464 34.2664 34.6531C34.6219 34.7601 35.0438 34.9047 35.4689 35.0436C35.8939 35.1824 36.3213 35.3141 36.7187 35.3989C37.1162 35.4838 37.4697 35.5471 37.8483 35.4235C38.2269 35.3001 38.4801 35.0415 38.7513 34.7383C39.0226 34.4351 39.2922 34.0684 39.554 33.7054C39.8157 33.3424 40.0706 32.9828 40.295 32.6867C40.5194 32.3907 40.7335 32.1561 40.8143 32.0973C40.8956 32.0398 41.1816 31.905 41.5325 31.7834C41.8833 31.6618 42.3049 31.53 42.7302 31.392C43.1555 31.2541 43.5795 31.1085 43.9508 30.943C44.3221 30.7776 44.6472 30.6247 44.8804 30.3005C45.1142 29.9778 45.1638 29.6185 45.2054 29.2136C45.247 28.8087 45.2503 28.3565 45.249 27.9088C45.2477 27.461 45.2402 27.0153 45.248 26.6437C45.2559 26.2721 45.2959 25.9609 45.3267 25.8657C45.3575 25.7705 45.5078 25.4948 45.719 25.1891C45.9303 24.8835 46.2016 24.5305 46.4648 24.1685C46.728 23.8066 46.9854 23.434 47.1887 23.0816C47.3921 22.7292 47.5643 22.4125 47.564 22.0137C47.5637 21.6149 47.3946 21.295 47.1906 20.9429C46.9867 20.5909 46.7248 20.2213 46.461 19.8598C46.1972 19.4983 45.9289 19.1436 45.7171 18.8383C45.5053 18.533 45.351 18.2578 45.3201 18.1626C45.2893 18.0677 45.2508 17.7582 45.2424 17.3865C45.2339 17.0149 45.2409 16.5702 45.2414 16.1225C45.242 15.6747 45.2372 15.2215 45.195 14.8167C45.1527 14.4119 45.1043 14.0531 44.87 13.7307C44.6357 13.4082 44.3101 13.2539 43.9385 13.0892C43.5669 12.9245 43.1407 12.7762 42.7151 12.6391C42.2895 12.5019 41.865 12.3766 41.5145 12.2543C41.164 12.1318 40.8771 11.9947 40.7962 11.9359C40.7154 11.8774 40.499 11.6469 40.2741 11.3513C40.0492 11.0556 39.7935 10.6914 39.5312 10.3288C39.2688 9.9662 39.0032 9.60704 38.7314 9.30442C38.4597 9.00183 38.209 8.7441 37.8302 8.6212C37.6882 8.57517 37.5492 8.55582 37.4097 8.55344ZM37.4665 9.53424C37.5018 9.53607 37.5239 9.53607 37.532 9.53974C37.5632 9.55074 37.7864 9.70368 38.0134 9.95664C38.2404 10.2094 38.4929 10.5459 38.7488 10.8995C39.0047 11.2532 39.2597 11.6249 39.503 11.9447C39.7464 12.2646 39.9611 12.5329 40.2289 12.7275C40.4968 12.9221 40.8154 13.0367 41.1945 13.1691C41.5736 13.3013 41.999 13.4313 42.4141 13.5651C42.8292 13.6988 43.2332 13.8369 43.5436 13.9745C43.854 14.1121 44.0627 14.2779 44.0819 14.3043C44.1011 14.3309 44.1963 14.5801 44.2316 14.9183C44.2669 15.2565 44.2748 15.6859 44.2742 16.1227C44.2737 16.5595 44.268 17.0057 44.2772 17.4077C44.2863 17.8097 44.296 18.1511 44.3985 18.4661C44.5009 18.7812 44.6925 19.0645 44.9215 19.3948C45.1506 19.7251 45.4185 20.0864 45.6758 20.4391C45.9331 20.7917 46.1801 21.1362 46.3505 21.4303C46.5209 21.7244 46.5913 21.9841 46.5911 22.0169C46.5909 22.0486 46.5194 22.3045 46.3495 22.5987C46.1796 22.8932 45.9372 23.2397 45.6805 23.5927C45.4237 23.9458 45.1528 24.3073 44.9243 24.638C44.6957 24.9685 44.506 25.2504 44.404 25.5657C44.302 25.8809 44.2874 26.223 44.279 26.6251C44.2705 27.0271 44.2824 27.478 44.2837 27.9148C44.285 28.3516 44.2768 28.7781 44.242 29.1163C44.2073 29.4546 44.1171 29.7039 44.098 29.7304C44.0787 29.7566 43.8689 29.9229 43.5588 30.0611C43.2486 30.1992 42.8441 30.3348 42.4293 30.4695C42.0143 30.6039 41.5867 30.7383 41.2077 30.8711C40.8287 31.0039 40.5077 31.1224 40.2403 31.3176C39.9727 31.5125 39.762 31.7802 39.5192 32.1003C39.2764 32.4207 39.024 32.7895 38.7687 33.1436C38.5133 33.4978 38.258 33.839 38.0314 34.0922C37.8048 34.3452 37.5837 34.4883 37.5528 34.4986C37.5219 34.5096 37.2536 34.5219 36.9217 34.4513C36.5897 34.3803 36.1803 34.257 35.7657 34.1215C35.3511 33.9862 34.9307 33.841 34.5461 33.7255C34.1615 33.6098 33.8365 33.5158 33.5056 33.516C33.1748 33.5164 32.8429 33.6074 32.4585 33.7236C32.0742 33.8397 31.6514 33.9882 31.2371 34.1245C30.8228 34.2607 30.4128 34.3845 30.081 34.456C29.749 34.5274 29.4838 34.5202 29.4528 34.5101C29.4216 34.4991 29.2013 34.3508 28.9742 34.0979C28.7472 33.8451 28.4919 33.5031 28.236 33.1494C27.9801 32.7957 27.7279 32.4307 27.4846 32.1108C27.2413 31.7909 27.0266 31.5227 26.7587 31.3281C26.4909 31.1335 26.1704 31.0131 25.7912 30.8808C25.4121 30.7486 24.9858 30.6185 24.5707 30.4847C24.1556 30.351 23.7516 30.212 23.4411 30.0744C23.1308 29.9368 22.9221 29.771 22.9029 29.7446C22.8837 29.718 22.7886 29.4698 22.7532 29.1315C22.7179 28.7934 22.7129 28.3686 22.7134 27.9319C22.7139 27.4951 22.7196 27.0499 22.7106 26.6479C22.7015 26.2458 22.689 25.8979 22.5865 25.5828C22.484 25.2676 22.2926 24.9853 22.0635 24.655C21.8344 24.3248 21.5693 23.9682 21.312 23.6155C21.0547 23.2629 20.8058 22.9137 20.6354 22.6196C20.465 22.3255 20.3965 22.0714 20.3966 22.0387C20.3969 22.007 20.4684 21.7504 20.6383 21.4559C20.8081 21.1614 21.0486 20.8102 21.3054 20.4571C21.5622 20.1041 21.8349 19.7473 22.0635 19.4167C22.292 19.0861 22.4798 18.7995 22.5818 18.4842C22.6838 18.169 22.6984 17.8269 22.7069 17.4248C22.7154 17.0227 22.7053 16.5767 22.704 16.1399C22.7027 15.7031 22.7109 15.2774 22.7457 14.9392C22.7804 14.6009 22.8715 14.3506 22.8906 14.3242C22.9099 14.298 23.1197 14.1328 23.4299 13.9945C23.7401 13.8565 24.1407 13.7149 24.5556 13.5804C24.9706 13.446 25.4009 13.317 25.7799 13.1843C26.1588 13.0511 26.4742 12.9359 26.7415 12.7404C27.0091 12.5455 27.2208 12.277 27.4636 11.9568C27.7064 11.6364 27.9635 11.2656 28.2189 10.9115C28.4742 10.5574 28.7295 10.2161 28.9561 9.96299C29.1826 9.70968 29.4008 9.56081 29.4318 9.55081C29.4627 9.53981 29.7319 9.52642 30.0639 9.59739C30.396 9.66836 30.8016 9.80022 31.2162 9.93568C31.6308 10.071 32.0569 10.2134 32.4415 10.329C32.8261 10.4447 33.1511 10.5386 33.4819 10.5384C33.8127 10.538 34.1418 10.4423 34.5262 10.3261C34.9106 10.21 35.336 10.0659 35.7505 9.92994C36.1648 9.79369 36.5661 9.66679 36.898 9.5955C37.147 9.54196 37.3617 9.53185 37.4665 9.53424ZM33.4913 16.8715C33.4077 16.8717 33.3255 16.8936 33.2528 16.9349C33.18 16.9762 33.1192 17.0356 33.0762 17.1074L30.5262 21.3546L26.461 18.995C26.3753 18.945 26.2762 18.9226 26.1773 18.9306C26.0783 18.9387 25.9842 18.9769 25.9077 19.0401C25.8312 19.1033 25.7758 19.1885 25.7492 19.2841C25.7226 19.3798 25.726 19.4813 25.7588 19.5749L28.2842 26.8525C28.3173 26.9478 28.3792 27.0304 28.4614 27.0888C28.5436 27.1472 28.642 27.1786 28.7428 27.1785L38.2445 27.1785C38.3453 27.1786 38.4437 27.1472 38.5259 27.0888C38.608 27.0303 38.67 26.9477 38.7031 26.8525L41.2237 19.5749C41.2564 19.4813 41.2597 19.38 41.2331 19.2845C41.2064 19.1891 41.1513 19.1041 41.0749 19.0409C40.9985 18.9777 40.9046 18.9395 40.8059 18.9313C40.7071 18.923 40.6082 18.9453 40.5225 18.9949L36.4572 21.3545L33.9073 17.1073C33.8642 17.0354 33.8032 16.9759 33.7303 16.9345C33.6574 16.8932 33.5752 16.8716 33.4913 16.8715ZM33.4913 18.2967L35.8736 22.2643C35.9394 22.3731 36.0452 22.4518 36.1684 22.4833C36.2916 22.5149 36.4222 22.4968 36.5322 22.433L39.881 20.4886L37.8967 26.2083L29.0869 26.2083L27.1026 20.4886L30.4543 22.4331C30.5643 22.4971 30.6952 22.5153 30.8186 22.4838C30.9419 22.4522 31.048 22.3734 31.1138 22.2643L33.4913 18.2967Z" fill="#002365" stroke="#002365"/>
</svg>
