<svg width="23" height="18" viewBox="0 0 23 18" fill="none" xmlns="http://www.w3.org/2000/svg">
<path d="M22.4052 18H0.367677C0.164855 18 0 17.8351 0 17.6323V0.367677C0 0.164855 0.164867 0 0.367677 0H22.4064C22.6093 0 22.7741 0.164867 22.7741 0.367677V17.6311C22.7729 17.8351 22.608 18 22.4052 18ZM0.73417 17.2646H22.0375V0.735081H0.73417V17.2646Z" fill="#002365"/>
<path d="M5.50951 3.67368H0.367677C0.164855 3.67368 0 3.50881 0 3.306C0 3.10319 0.164867 2.93833 0.367677 2.93833H5.3589L6.72055 1.57668C6.78816 1.50908 6.88186 1.46875 6.9803 1.46875H22.4067C22.6095 1.46875 22.7744 1.63362 22.7744 1.83643C22.7744 2.03925 22.6095 2.2041 22.4067 2.2041H7.13091L5.76927 3.56575C5.70047 3.63573 5.60796 3.67368 5.50951 3.67368Z" fill="#002365"/>
<path d="M1.83726 2.20461C1.38062 2.20461 1.34622 1.51668 1.80168 1.47159C2.30578 1.43364 2.34252 2.19155 1.83726 2.20461Z" fill="#002365"/>
<path d="M3.30675 2.20461C2.8501 2.20461 2.8157 1.51668 3.27116 1.47159C3.77405 1.43364 3.81201 2.19155 3.30675 2.20461Z" fill="#002365"/>
<path d="M4.77562 2.20461C4.31897 2.20461 4.28457 1.51668 4.74003 1.47159C5.24414 1.43364 5.28209 2.19155 4.77562 2.20461Z" fill="#002365"/>
<path d="M5.59615 16.0858C5.5582 16.0858 5.51787 16.0799 5.47992 16.0669C5.34826 16.0218 5.25219 15.9079 5.23202 15.7703C5.22728 15.7442 5.13832 15.0943 5.23084 14.2616C5.2854 13.7682 5.39452 13.308 5.55227 12.8976C5.75391 12.3733 6.03858 11.925 6.39675 11.5644L6.39794 11.5633C7.3231 10.6381 8.82706 10.6381 9.74982 11.5633C9.76405 11.5775 9.77828 11.5929 9.79251 11.6083C10.0701 11.9001 10.2539 12.2583 10.3251 12.645C10.3903 13.0056 10.3583 13.3816 10.229 13.7314C9.95263 14.4811 9.29081 15.0017 8.49849 15.0859C7.23174 15.2223 6.29355 15.539 5.8547 15.9779C5.78591 16.0479 5.69223 16.0858 5.59615 16.0858ZM6.87952 12.1218C6.0623 12.9746 5.92591 14.2615 5.92591 15.0277C6.66248 14.6233 7.64457 14.4394 8.42146 14.354C8.94214 14.2971 9.35965 13.9697 9.54113 13.4763C9.71905 12.9912 9.61467 12.4824 9.2624 12.1123C9.25173 12.1016 9.24342 12.091 9.23275 12.0827C8.59462 11.4445 7.55799 11.4445 6.91868 12.0827C6.90801 12.0933 6.8997 12.104 6.88903 12.1135C6.88547 12.1171 6.88189 12.1194 6.87952 12.1218Z" fill="#002365"/>
<path d="M9.96784 13.0927C9.8777 13.0927 9.78519 13.0583 9.71402 12.9919C9.56694 12.852 9.56101 12.6195 9.70097 12.4724L16.7418 5.06059C16.8877 4.90758 16.8841 4.67035 16.7347 4.52093C16.5852 4.37148 16.3492 4.36792 16.195 4.51381L8.78436 11.5534C8.63729 11.6934 8.40481 11.6862 8.26487 11.5403C8.12491 11.3933 8.13202 11.1608 8.27791 11.0208L15.6885 3.98127C15.902 3.77844 16.1808 3.67052 16.4737 3.67289C16.7679 3.67763 17.0442 3.79269 17.2518 4.00024C17.4594 4.2078 17.5768 4.48537 17.5792 4.77832C17.5839 5.07247 17.4736 5.35238 17.2708 5.5635L10.23 12.9753C10.1624 13.0548 10.0651 13.0927 9.96784 13.0927Z" fill="#002365"/>
<path d="M8.44752 5.14331H1.83728C1.63446 5.14331 1.4696 4.97845 1.4696 4.77564C1.4696 4.57281 1.63447 4.40796 1.83728 4.40796H8.44843C8.65125 4.40796 8.8161 4.57283 8.8161 4.77564C8.81492 4.97846 8.65151 5.14331 8.44752 5.14331Z" fill="#002365"/>
<path d="M5.5095 6.61353H1.83728C1.63446 6.61353 1.4696 6.44866 1.4696 6.24585C1.4696 6.04303 1.63447 5.87817 1.83728 5.87817H5.5095C5.71232 5.87817 5.87718 6.04304 5.87718 6.24585C5.87718 6.44867 5.71231 6.61353 5.5095 6.61353Z" fill="#002365"/>
<path d="M5.5095 8.08228H1.83728C1.63446 8.08228 1.4696 7.91741 1.4696 7.7146C1.4696 7.51179 1.63447 7.34692 1.83728 7.34692H5.5095C5.71232 7.34692 5.87718 7.51179 5.87718 7.7146C5.87718 7.91861 5.71231 8.08228 5.5095 8.08228Z" fill="#002365"/>
<path d="M20.9359 16.5304H17.2637C17.0609 16.5304 16.896 16.3656 16.896 16.1627V13.959C16.896 13.7562 17.0609 13.5913 17.2637 13.5913H20.9359C21.1387 13.5913 21.3036 13.7562 21.3036 13.959V16.1627C21.3036 16.3656 21.1387 16.5304 20.9359 16.5304ZM17.6314 15.795H20.5705V14.3255H17.6314V15.795Z" fill="#002365"/>
</svg>
