<svg width="88" height="88" viewBox="0 0 88 88" fill="none" xmlns="http://www.w3.org/2000/svg">
<path d="M56.9298 15.3201C56.2039 15.3201 55.4944 15.5353 54.8908 15.9386C54.2873 16.3418 53.8169 16.915 53.5391 17.5856C53.2614 18.2562 53.1887 18.9941 53.3303 19.7061C53.4719 20.418 53.8214 21.0719 54.3347 21.5852C54.8479 22.0984 55.5019 22.4479 56.2138 22.5896C56.9257 22.7312 57.6636 22.6585 58.3342 22.3807C59.0048 22.1029 59.578 21.6325 59.9813 21.029C60.3845 20.4255 60.5998 19.7159 60.5998 18.9901C60.5998 18.0167 60.2131 17.0832 59.5249 16.395C58.8366 15.7067 57.9031 15.3201 56.9298 15.3201Z" fill="black"/>
<path d="M29.7602 13.6401C28.702 13.6401 27.6677 13.9539 26.7879 14.5418C25.9081 15.1296 25.2223 15.9652 24.8174 16.9428C24.4125 17.9204 24.3065 18.9961 24.513 20.0339C24.7194 21.0717 25.2289 22.0249 25.9771 22.7732C26.7253 23.5214 27.6786 24.0309 28.7164 24.2373C29.7542 24.4438 30.8299 24.3378 31.8075 23.9329C32.7851 23.528 33.6207 22.8422 34.2085 21.9624C34.7964 21.0826 35.1102 20.0483 35.1102 18.9901C35.1102 17.5712 34.5465 16.2104 33.5432 15.2071C32.5399 14.2038 31.1791 13.6401 29.7602 13.6401Z" fill="black"/>
<path d="M56.9288 27.77C56.2614 27.7681 55.6085 27.9643 55.0528 28.3338C54.4971 28.7034 54.0636 29.2296 53.8073 29.8458C53.551 30.462 53.4834 31.1404 53.6131 31.795C53.7428 32.4497 54.064 33.0511 54.5359 33.523C55.0078 33.9949 55.6092 34.316 56.2638 34.4458C56.9185 34.5755 57.5969 34.5079 58.2131 34.2516C58.8293 33.9953 59.3555 33.5618 59.725 33.0061C60.0946 32.4503 60.2908 31.7974 60.2888 31.13C60.2862 30.2397 59.9313 29.3866 59.3018 28.7571C58.6722 28.1275 57.8191 27.7727 56.9288 27.77Z" fill="black"/>
<path d="M43.3497 27.51C42.6234 27.51 41.9134 27.7255 41.3097 28.1292C40.706 28.5329 40.2356 29.1067 39.9581 29.7779C39.6806 30.4491 39.6085 31.1875 39.7509 31.8997C39.8934 32.6119 40.2439 33.2658 40.7581 33.7786C41.2724 34.2915 41.9273 34.6402 42.6398 34.7807C43.3524 34.9212 44.0906 34.8471 44.7611 34.5678C45.4315 34.2885 46.004 33.8165 46.406 33.2117C46.8081 32.6068 47.0217 31.8963 47.0197 31.17C47.0197 30.6885 46.9247 30.2118 46.7401 29.7671C46.5556 29.3224 46.2851 28.9185 45.9442 28.5785C45.6032 28.2385 45.1986 27.9691 44.7534 27.7857C44.3082 27.6024 43.8312 27.5087 43.3497 27.51Z" fill="black"/>
<path d="M43.3496 14.02C42.3607 14.02 41.394 14.3133 40.5718 14.8627C39.7495 15.4121 39.1087 16.193 38.7302 17.1066C38.3518 18.0202 38.2528 19.0256 38.4457 19.9955C38.6386 20.9654 39.1148 21.8563 39.8141 22.5556C40.5133 23.2548 41.4043 23.731 42.3742 23.9239C43.3441 24.1169 44.3494 24.0179 45.263 23.6394C46.1767 23.261 46.9576 22.6201 47.507 21.7979C48.0564 20.9756 48.3496 20.0089 48.3496 19.02C48.3496 17.6939 47.8228 16.4222 46.8851 15.4845C45.9475 14.5468 44.6757 14.02 43.3496 14.02Z" fill="black"/>
<path d="M29.7598 26.21C28.7709 26.21 27.8042 26.5032 26.9819 27.0526C26.1597 27.602 25.5188 28.3829 25.1404 29.2965C24.7619 30.2102 24.6629 31.2155 24.8558 32.1854C25.0488 33.1553 25.525 34.0462 26.2242 34.7455C26.9235 35.4448 27.8144 35.921 28.7843 36.1139C29.7542 36.3068 30.7596 36.2078 31.6732 35.8294C32.5868 35.4509 33.3677 34.8101 33.9171 33.9878C34.4665 33.1656 34.7598 32.1989 34.7598 31.21C34.7598 30.5534 34.6304 29.9032 34.3792 29.2965C34.1279 28.6899 33.7596 28.1387 33.2953 27.6744C32.831 27.2101 32.2798 26.8418 31.6732 26.5906C31.0666 26.3393 30.4164 26.21 29.7598 26.21Z" fill="black"/>
<path d="M56.9291 41.0601C56.4738 41.0581 56.0282 41.1913 55.6486 41.4428C55.2691 41.6943 54.9727 42.0529 54.7971 42.473C54.6215 42.893 54.5745 43.3558 54.6621 43.8026C54.7497 44.2494 54.968 44.6602 55.2893 44.9829C55.6105 45.3055 56.0203 45.5256 56.4667 45.6151C56.9132 45.7047 57.3761 45.6597 57.797 45.4859C58.2178 45.3122 58.5776 45.0174 58.8308 44.6389C59.084 44.2605 59.2191 43.8154 59.2191 43.3601C59.2191 42.7518 58.9782 42.1683 58.549 41.7373C58.1199 41.3062 57.5374 41.0627 56.9291 41.0601Z" fill="black"/>
<path d="M43.3495 39.99C42.6848 39.9979 42.0372 40.2022 41.4883 40.5773C40.9394 40.9523 40.5137 41.4814 40.2647 42.0978C40.0158 42.7143 39.9547 43.3906 40.0892 44.0416C40.2238 44.6927 40.5478 45.2894 41.0207 45.7567C41.4935 46.224 42.094 46.541 42.7466 46.6679C43.3993 46.7947 44.0748 46.7256 44.6882 46.4694C45.3017 46.2132 45.8257 45.7813 46.1942 45.228C46.5628 44.6747 46.7595 44.0248 46.7595 43.36C46.7596 42.914 46.6711 42.4725 46.4992 42.061C46.3274 41.6495 46.0756 41.2762 45.7584 40.9628C45.4412 40.6493 45.065 40.4019 44.6515 40.2349C44.238 40.0679 43.7954 39.9847 43.3495 39.99Z" fill="black"/>
<path d="M29.7598 39.6899C29.034 39.6899 28.3244 39.9052 27.7209 40.3084C27.1174 40.7117 26.647 41.2849 26.3692 41.9555C26.0914 42.6261 26.0188 43.364 26.1604 44.0759C26.302 44.7878 26.6515 45.4418 27.1648 45.955C27.678 46.4683 28.332 46.8178 29.0439 46.9594C29.7558 47.101 30.4937 47.0284 31.1643 46.7506C31.8349 46.4728 32.4081 46.0024 32.8113 45.3989C33.2146 44.7954 33.4298 44.0858 33.4298 43.3599C33.4298 42.3866 33.0432 41.4531 32.3549 40.7649C31.6667 40.0766 30.7332 39.6899 29.7598 39.6899Z" fill="black"/>
<path d="M56.9288 53.9099C56.6064 53.9099 56.2913 54.0055 56.0232 54.1846C55.7552 54.3637 55.5463 54.6183 55.4229 54.9161C55.2995 55.214 55.2673 55.5417 55.3301 55.8579C55.393 56.1741 55.5483 56.4645 55.7762 56.6925C56.0042 56.9205 56.2946 57.0757 56.6108 57.1386C56.927 57.2015 57.2548 57.1692 57.5526 57.0458C57.8504 56.9225 58.105 56.7135 58.2841 56.4455C58.4632 56.1774 58.5588 55.8623 58.5588 55.5399C58.5588 55.1076 58.3871 54.693 58.0814 54.3873C57.7757 54.0816 57.3611 53.9099 56.9288 53.9099Z" fill="black"/>
<path d="M70.509 33.4701C70.9639 33.4701 71.4086 33.3352 71.7868 33.0825C72.165 32.8298 72.4598 32.4706 72.6339 32.0503C72.808 31.63 72.8535 31.1676 72.7648 30.7214C72.676 30.2753 72.457 29.8654 72.1353 29.5438C71.8137 29.2221 71.4039 29.0031 70.9577 28.9143C70.5115 28.8256 70.0491 28.8711 69.6288 29.0452C69.2085 29.2193 68.8493 29.5141 68.5966 29.8923C68.3439 30.2705 68.209 30.7152 68.209 31.1701C68.209 31.7801 68.4513 32.3651 68.8826 32.7965C69.314 33.2278 69.899 33.4701 70.509 33.4701Z" fill="black"/>
<path d="M70.5089 41.77C70.1865 41.77 69.8714 41.8656 69.6033 42.0447C69.3353 42.2238 69.1264 42.4784 69.003 42.7762C68.8796 43.0741 68.8473 43.4018 68.9102 43.718C68.9731 44.0342 69.1284 44.3246 69.3563 44.5526C69.5843 44.7806 69.8747 44.9358 70.1909 44.9987C70.5071 45.0616 70.8348 45.0293 71.1327 44.9059C71.4305 44.7826 71.6851 44.5737 71.8642 44.3056C72.0433 44.0375 72.1389 43.7224 72.1389 43.4C72.1389 42.9677 71.9672 42.5531 71.6615 42.2474C71.3558 41.9418 70.9412 41.77 70.5089 41.77Z" fill="black"/>
<path d="M70.5095 56.61C71.1004 56.61 71.5795 56.1309 71.5795 55.54C71.5795 54.949 71.1004 54.47 70.5095 54.47C69.9185 54.47 69.4395 54.949 69.4395 55.54C69.4395 56.1309 69.9185 56.61 70.5095 56.61Z" fill="black"/>
<path d="M16.1898 25.8201C15.1317 25.8201 14.0973 26.1338 13.2175 26.7217C12.3377 27.3096 11.652 28.1451 11.2471 29.1227C10.8422 30.1003 10.7362 31.176 10.9426 32.2138C11.1491 33.2516 11.6586 34.2049 12.4068 34.9531C13.155 35.7013 14.1083 36.2108 15.1461 36.4173C16.1839 36.6237 17.2596 36.5178 18.2372 36.1128C19.2148 35.7079 20.0503 35.0222 20.6382 34.1424C21.2261 33.2626 21.5398 32.2282 21.5398 31.1701C21.5398 30.4675 21.4015 29.7718 21.1326 29.1227C20.8637 28.4736 20.4697 27.8838 19.9729 27.387C19.4761 26.8903 18.8863 26.4962 18.2372 26.2273C17.5881 25.9585 16.8924 25.8201 16.1898 25.8201Z" fill="black"/>
<path d="M16.1895 38.3901C15.2005 38.3901 14.2339 38.6834 13.4116 39.2328C12.5894 39.7822 11.9485 40.5631 11.5701 41.4767C11.1916 42.3903 11.0926 43.3957 11.2855 44.3656C11.4785 45.3355 11.9547 46.2264 12.6539 46.9257C13.3532 47.6249 14.2441 48.1011 15.214 48.2941C16.1839 48.487 17.1892 48.388 18.1029 48.0095C19.0165 47.6311 19.7974 46.9902 20.3468 46.168C20.8962 45.3457 21.1895 44.379 21.1895 43.3901C21.1895 42.7335 21.0601 42.0833 20.8089 41.4767C20.5576 40.8701 20.1893 40.3189 19.725 39.8546C19.2607 39.3903 18.7095 39.022 18.1029 38.7707C17.4962 38.5195 16.8461 38.3901 16.1895 38.3901Z" fill="black"/>
<path d="M16.1895 51.8701C15.4637 51.8701 14.7541 52.0854 14.1506 52.4886C13.5471 52.8919 13.0767 53.4651 12.7989 54.1357C12.5211 54.8063 12.4484 55.5442 12.5901 56.2561C12.7317 56.968 13.0812 57.6219 13.5945 58.1352C14.1077 58.6485 14.7616 58.998 15.4736 59.1396C16.1855 59.2812 16.9234 59.2085 17.594 58.9308C18.2646 58.653 18.8378 58.1826 19.241 57.5791C19.6443 56.9755 19.8595 56.266 19.8595 55.5401C19.8595 55.0582 19.7646 54.5809 19.5802 54.1357C19.3957 53.6904 19.1254 53.2858 18.7846 52.945C18.4438 52.6042 18.0392 52.3339 17.594 52.1495C17.1487 51.965 16.6715 51.8701 16.1895 51.8701Z" fill="black"/>
<path d="M43.3505 53.25C42.8976 53.25 42.4549 53.3843 42.0783 53.6359C41.7017 53.8876 41.4082 54.2452 41.2349 54.6637C41.0615 55.0821 41.0162 55.5425 41.1045 55.9868C41.1929 56.431 41.411 56.839 41.7313 57.1593C42.0515 57.4795 42.4596 57.6976 42.9038 57.786C43.348 57.8744 43.8085 57.829 44.2269 57.6557C44.6453 57.4824 45.003 57.1888 45.2546 56.8123C45.5062 56.4357 45.6405 55.9929 45.6405 55.54C45.6405 54.9327 45.3993 54.3502 44.9698 53.9207C44.5404 53.4913 43.9579 53.25 43.3505 53.25Z" fill="black"/>
<path d="M29.7604 52.1799C29.0958 52.1799 28.4462 52.377 27.8937 52.7462C27.3411 53.1154 26.9105 53.6402 26.6562 54.2541C26.4018 54.8681 26.3353 55.5437 26.465 56.1954C26.5946 56.8472 26.9146 57.4459 27.3845 57.9158C27.8544 58.3857 28.4531 58.7057 29.1049 58.8354C29.7567 58.965 30.4322 58.8985 31.0462 58.6442C31.6602 58.3899 32.1849 57.9592 32.5541 57.4066C32.9233 56.8541 33.1204 56.2045 33.1204 55.5399C33.1204 54.6488 32.7664 53.7942 32.1363 53.1641C31.5061 52.5339 30.6515 52.1799 29.7604 52.1799Z" fill="black"/>
<path d="M56.9294 68.7899C57.5203 68.7899 57.9994 68.3108 57.9994 67.7199C57.9994 67.129 57.5203 66.6499 56.9294 66.6499C56.3384 66.6499 55.8594 67.129 55.8594 67.7199C55.8594 68.3108 56.3384 68.7899 56.9294 68.7899Z" fill="black"/>
<path d="M43.3499 66.0901C43.0297 66.0902 42.7166 66.1847 42.4498 66.3617C42.1829 66.5387 41.9741 66.7904 41.8494 67.0853C41.7247 67.3803 41.6896 67.7054 41.7486 68.0201C41.8075 68.3349 41.9579 68.6253 42.1808 68.8551C42.4038 69.085 42.6896 69.244 43.0024 69.3124C43.3152 69.3809 43.6413 69.3556 43.9398 69.2399C44.2384 69.1242 44.4963 68.923 44.6813 68.6616C44.8662 68.4002 44.9701 68.0902 44.9799 67.7701C44.9866 67.5519 44.9494 67.3345 44.8705 67.131C44.7916 66.9274 44.6726 66.7417 44.5206 66.585C44.3685 66.4283 44.1866 66.3038 43.9855 66.2188C43.7844 66.1337 43.5683 66.09 43.3499 66.0901Z" fill="black"/>
<path d="M29.7705 70.0099C31.0352 70.0099 32.0605 68.9847 32.0605 67.7199C32.0605 66.4552 31.0352 65.4299 29.7705 65.4299C28.5057 65.4299 27.4805 66.4552 27.4805 67.7199C27.4805 68.9847 28.5057 70.0099 29.7705 70.0099Z" fill="black"/>
<path d="M43.76 0C35.1036 0.00197772 26.6421 2.57072 19.4454 7.38144C12.2488 12.1921 6.64026 19.0288 3.32894 27.0269C0.0176287 35.025 -0.847737 43.8253 0.842268 52.3152C2.53227 60.8051 6.70175 68.6032 12.8235 74.7236C18.9452 80.8439 26.7443 85.0116 35.2346 86.6997C43.7249 88.3878 52.525 87.5204 60.5224 84.2072C68.5197 80.8941 75.3551 75.284 80.1641 68.0863C84.9732 60.8885 87.54 52.4265 87.54 43.77C87.5268 32.1638 82.9097 21.0369 74.7019 12.831C66.4942 4.62514 55.3662 0.0105869 43.76 0ZM43.76 2.54C54.2528 2.54132 64.347 6.55967 71.97 13.77L13.76 71.98C8.24722 66.1238 4.56901 58.7821 3.17902 50.8604C1.78903 42.9387 2.74803 34.7833 5.93778 27.4002C9.12752 20.017 14.4085 13.7288 21.1294 9.31125C27.8503 4.89366 35.7173 2.53981 43.76 2.54ZM43.76 85C33.2672 84.9987 23.173 80.9803 15.55 73.77L73.76 15.56C79.2728 21.4162 82.951 28.7579 84.341 36.6796C85.731 44.6013 84.772 52.7567 81.5823 60.1398C78.3925 67.523 73.1115 73.8112 66.3906 78.2287C59.6697 82.6463 51.8028 85.0002 43.76 85Z" fill="black"/>
</svg>
