<svg width="106" height="95" viewBox="0 0 106 95" fill="none" xmlns="http://www.w3.org/2000/svg">
<path d="M35.2919 63.1797C35.2919 61.2092 35.7298 59.2388 36.6056 57.3778C28.6142 58.8009 20.1849 56.3925 14.0545 50.2621C4.09256 40.3002 4.09256 23.989 14.0545 14.0271C24.0164 4.0652 40.3276 4.0652 50.399 14.0271L54.121 17.7491H47.7716C46.239 17.7491 45.0349 19.0628 45.0349 20.4859C45.0349 22.0185 46.239 23.2227 47.7716 23.2227H60.7987C62.3313 23.2227 63.5355 22.0185 63.5355 20.4859V7.45881C63.5355 5.92621 62.3313 4.72203 60.7987 4.72203C59.2661 4.72203 58.062 6.03568 58.062 7.45881V13.8082L54.2305 9.97665C48.4285 4.17467 40.5465 1 32.2267 1C23.9069 1 16.0249 4.28414 10.1135 10.0861C-2.03783 22.2374 -2.03783 42.0518 10.1135 54.2031C16.0249 60.1145 23.7974 63.2892 32.2267 63.2892C33.3214 63.3987 34.3067 63.2892 35.2919 63.1797Z" fill="black" stroke="#FFFAF0" stroke-width="2"/>
<path d="M29.3811 17.8584V30.0097L20.9518 32.4181C19.4192 32.8559 18.6529 34.3885 18.9813 35.8117C19.4192 37.2348 20.9518 38.1106 22.3749 37.7822L32.8842 34.8264C34.0883 34.498 34.9641 33.4033 34.9641 32.1991V17.8584C34.9641 16.3258 33.7599 15.1216 32.2273 15.1216C30.5853 15.1216 29.3811 16.3258 29.3811 17.8584Z" fill="black" stroke="#FFFAF0" stroke-width="2"/>
<path d="M104.697 23.4416C104.369 21.0332 102.508 19.1722 100.1 18.8438C93.9692 18.0775 78.0959 17.8586 61.8941 31.3235C60.69 32.3088 59.1574 32.7467 57.7342 32.5277C51.8228 31.433 46.3492 33.0751 42.4082 36.9066L35.84 43.4749C34.7452 44.5696 34.1979 46.2116 34.5263 47.8537C34.8547 49.3863 35.84 50.8094 37.3726 51.4663L44.8166 54.8599L42.1893 58.5819C39.9999 61.6471 40.3283 65.9165 42.9556 68.6533L55.1069 80.6951C57.8437 83.4319 62.0036 83.7603 65.1783 81.4614L68.9003 78.7246L72.2939 86.1687C72.9507 87.5918 74.2644 88.6865 75.9065 88.9055C77.4391 89.2339 79.0811 88.6865 80.2853 87.4824L86.8536 80.9141C90.6851 77.0826 92.2177 71.609 91.2325 65.6975C91.0135 64.2744 91.4514 62.7418 92.4366 61.5376C105.792 45.4453 105.464 29.572 104.697 23.4416ZM88.1673 58.2535C86.1968 60.6619 85.321 63.8365 85.8684 66.7923C86.4157 69.748 86.3063 73.9079 83.0221 77.3015L77.0012 83.3224L72.5129 73.47C72.1844 72.7037 71.5276 72.1564 70.7613 71.9374C69.995 71.7185 69.1192 71.9374 68.4624 72.3753L62.1131 76.9731C61.2373 77.6299 59.9237 77.5205 59.1574 76.7542L47.1155 64.7123C46.3492 63.946 46.2397 62.6324 46.8966 61.7566L51.4944 55.4072C51.9322 54.7504 52.1512 53.8746 51.9322 53.1083C51.8228 52.6705 51.6038 52.2326 51.2754 51.9042C51.0565 51.6852 50.7281 51.4663 50.5091 51.3568L40.6567 46.8685L46.6776 40.8475C50.0712 37.4539 54.2311 37.4539 57.1869 37.8918C60.2521 38.4392 63.3173 37.5634 65.7256 35.5929C80.2853 23.4416 94.4071 23.6605 99.6618 24.0984C99.8807 28.3678 100.647 43.2559 88.1673 58.2535Z" fill="black" stroke="#FFFAF0" stroke-width="2"/>
<path d="M84.2261 39.4245C82.3651 37.5635 79.7377 36.4688 77.1104 36.4688C74.3736 36.4688 71.8558 37.5635 69.9948 39.4245C66.0538 43.3654 66.0538 49.7148 69.9948 53.6558C73.9358 57.5967 80.2851 57.5967 84.2261 53.6558C88.167 49.8243 88.167 43.3654 84.2261 39.4245ZM80.3946 49.9337C78.5336 51.7947 75.5778 51.7947 73.8263 49.9337C71.9653 48.0727 71.9653 45.117 73.8263 43.3654C74.7021 42.4897 75.9062 41.9423 77.1104 41.9423C78.3146 41.9423 79.5188 42.3802 80.3946 43.256C82.2556 45.117 82.2556 48.0727 80.3946 49.9337Z" fill="black" stroke="#FFFAF0" stroke-width="2"/>
<path d="M39.5626 74.1269C40.6574 73.0322 40.6574 71.3901 39.5626 70.2954C38.4679 69.2007 36.8259 69.2007 35.7311 70.2954L31.3523 74.6743C30.2576 75.769 30.2576 77.411 31.3523 78.5058C32.447 79.6005 34.0891 79.6005 35.1838 78.5058L39.5626 74.1269Z" fill="black" stroke="#FFFAF0" stroke-width="2"/>
<path d="M46.5687 77.3015C45.4739 76.2068 43.8319 76.2068 42.7372 77.3015L35.9499 84.0887C34.8552 85.1834 34.8552 86.8255 35.9499 87.9202C37.0447 89.0149 38.6867 89.0149 39.7814 87.9202L46.5687 81.133C47.6634 80.0383 47.6634 78.2867 46.5687 77.3015Z" fill="black" stroke="#FFFAF0" stroke-width="2"/>
<path d="M49.7429 84.1982L45.364 88.577C44.2693 89.6717 44.2693 91.3138 45.364 92.4085C46.4587 93.5032 48.1008 93.5032 49.1955 92.4085L53.5744 88.0297C54.6691 86.9349 54.6691 85.2929 53.5744 84.1982C52.4796 83.2129 50.7281 83.2129 49.7429 84.1982Z" fill="black" stroke="#FFFAF0" stroke-width="2"/>
</svg>
