<svg width="30" height="23" viewBox="0 0 30 23" fill="none" xmlns="http://www.w3.org/2000/svg">
<g clip-path="url(#clip0_2488_165)">
<path fill-rule="evenodd" clip-rule="evenodd" d="M2.1416 11.3217C2.1416 11.3217 10.7986 6.87205 19.007 14.3861C20.2082 13.8711 24.0533 11.7725 29.3442 14.6971L29.5758 20.599L2.53089 22.2824L2.14305 11.3217H2.1416Z" fill="#D8D8D8"/>
<path d="M0 22.572L2.03039 23V0L0 0.998635V22.572Z" fill="black"/>
<path d="M2.03027 23L29.9999 21.1454V2.02437L2.03027 0.0270996V23ZM3.18802 1.25399L28.8421 3.08578V20.0883L3.18802 21.8245V1.25399Z" fill="#333333"/>
<path d="M2.03027 23L29.9999 21.1454V2.02437L2.03027 0.0270996V23ZM3.18802 1.25399L28.8421 3.08578V20.0883L3.18802 21.8245V1.25399Z" fill="#333333"/>
<path d="M21.7207 7.25726C21.7207 6.20156 22.589 5.34702 23.6585 5.34702C24.7279 5.34702 25.5962 6.20156 25.5962 7.25726C25.5962 8.31296 24.7279 9.16751 23.6585 9.16751C22.589 9.16751 21.7207 8.31154 21.7207 7.25726Z" fill="#D8D8D8"/>
</g>
<defs>
<clipPath id="clip0_2488_165">
<rect width="30" height="23" fill="white"/>
</clipPath>
</defs>
</svg>
