<svg width="245" height="50" viewBox="0 0 245 50" fill="none" xmlns="http://www.w3.org/2000/svg">
<path d="M44.9147 35.5814C43.2364 37.7421 41.6374 39.8634 39.9657 41.9321C36.8272 45.8201 32.7966 48.2237 27.8278 49.1366C14.7054 51.5403 1.82093 42.1094 0.254961 28.9286C-0.722941 20.6667 1.03464 13.2389 6.87562 7.01954C13.1857 0.307606 24.088 -1.95816 31.9971 1.83126C34.693 3.12504 36.999 4.9508 38.8358 7.28881C40.8445 9.83698 42.7475 12.4574 44.7693 15.1435C45.7208 13.7315 46.6657 12.2998 47.6304 10.8812C49.051 8.78619 50.4187 6.6452 51.9318 4.62242C55.077 0.425821 60.2506 0.104016 64.03 1.10227C65.8405 1.58169 66.6268 3.09221 65.9132 4.83915C65.3515 6.21831 64.5719 7.54494 63.7195 8.77962C60.2043 13.9154 56.6495 19.0248 53.0551 24.1015C52.5199 24.8567 52.5529 25.3165 53.0815 26.0586C56.8147 31.3126 60.4951 36.6059 64.1754 41.8993C64.7304 42.7005 65.2458 43.5412 65.6423 44.4278C66.4219 46.1747 65.8273 47.6458 64.0565 48.3157C60.7858 49.5438 54.7862 49.5175 51.6146 45.2815C49.487 42.4378 47.5643 39.4431 45.549 36.514C45.3508 36.225 45.146 35.936 44.9081 35.5945L44.9147 35.5814ZM39.2719 23.2215C40.5207 21.4285 41.6837 19.8064 42.7739 18.1317C42.9523 17.8558 42.9853 17.2516 42.8003 16.9955C40.6529 14.0533 38.5583 11.0585 36.2127 8.27393C35.0366 6.87506 33.4904 5.68635 31.9046 4.74721C28.5018 2.72443 25.0263 2.88205 21.6565 5.0099C19.7205 6.23145 18.2404 7.88645 17.1634 9.85668C11.7519 19.7276 11.7717 29.6247 17.3484 39.3905C20.9561 45.7084 29.4929 49.8328 37.1311 41.2228C37.217 41.1243 37.3095 41.0258 37.3888 40.9207C38.8491 39.0687 40.382 37.2758 41.7431 35.3581C48.6149 25.6842 55.4536 15.9775 62.2791 6.27085C62.8011 5.52873 63.1777 4.68153 63.6204 3.88687C60.5876 2.25157 56.1474 3.34834 53.8546 6.23145C53.0551 7.23627 52.3547 8.32647 51.6345 9.39696C48.1854 14.5196 44.8817 19.7538 41.2542 24.7451C37.9372 29.3029 34.3362 33.6637 30.7153 37.9982C29.0833 39.9553 26.9094 41.3476 24.4646 42.2342C22.3635 42.9895 21.6102 42.7071 20.3416 40.6843C23.1432 40.2115 25.806 39.2592 27.7287 37.197C31.2042 33.4667 34.4683 29.5393 37.8579 25.6448C34.8516 21.6715 32.1821 17.8952 29.222 14.3554C27.8278 12.6873 25.9844 11.3212 24.1607 10.0931C23.0044 9.31159 21.5045 9.03575 20.1566 8.53006C21.5772 6.56639 22.1983 6.38907 24.3854 7.31508C27.5635 8.65484 30.0083 10.8943 32.0566 13.587C34.4485 16.7328 36.7809 19.918 39.2521 23.228L39.2719 23.2215ZM14.5799 9.03575C8.12443 10.2179 2.77901 16.3913 2.60061 24.2131C2.40238 32.9938 8.59356 39.4562 14.8046 40.3756C9.3402 29.9465 9.21466 19.5108 14.5799 9.03575ZM50.901 27.2407C49.5069 29.1322 48.225 30.8266 47.0159 32.5735C46.8044 32.8822 46.745 33.5389 46.9366 33.8279C49.1699 37.1904 51.4164 40.5398 53.7621 43.8301C55.5725 46.3717 60.2374 47.2649 63.5873 45.5639C59.3652 39.4693 55.1761 33.4076 50.901 27.2407ZM9.77629 41.7023C12.8025 44.257 16.2912 46.1813 20.6191 46.6607C19.4826 45.6493 18.4849 44.7233 17.4475 43.8433C17.1965 43.6265 16.8397 43.5017 16.5159 43.4164C14.2495 42.8253 11.9832 42.2605 9.77629 41.7023ZM9.59129 7.89958C10.8137 7.44643 12.0493 6.86193 13.3179 6.56639C14.5865 6.27085 15.8353 6.17234 16.9189 5.50246C18.1281 4.74721 19.1192 3.69641 20.2161 2.80324C19.965 3.0134 19.0928 3.0134 18.7558 3.09221C18.2669 3.20385 17.7779 3.34177 17.2956 3.48625C16.3639 3.77522 15.4521 4.13643 14.5667 4.56988C12.7695 5.44336 11.0978 6.59266 9.59789 7.90615L9.59129 7.89958Z" fill="url(#paint0_linear_2267_169)"/>
<path d="M75.1915 24.417C75.1915 18.1169 80.3403 12.6304 87.0499 12.6304C93.198 12.6304 98.2707 17.3696 98.8512 23.0643H96.5766C96.0532 18.5805 92.0084 14.8628 87.0499 14.8628C81.568 14.8628 77.4376 19.3183 77.4376 24.417C77.4376 29.5157 81.568 33.9428 87.0499 33.9428C92.0655 33.9428 96.1103 30.1684 96.6052 25.6562H98.8512C98.3563 31.4076 93.2266 36.1753 87.0499 36.1753C80.3498 36.1753 75.1915 30.7265 75.1915 24.417Z" fill="black"/>
<path d="M101.364 13.075H105.799C112.67 13.075 115.164 17.0669 115.164 21.3899C115.164 24.417 113.888 27.2832 110.843 28.7116L115.049 35.759H112.394L108.797 29.4022C107.94 29.563 107.026 29.6765 105.999 29.6765H103.619V35.7874H101.373V13.075H101.364ZM106.046 27.5008C110.557 27.5008 112.975 25.1075 112.975 21.3899C112.975 17.6723 110.481 15.2507 106.046 15.2507H103.61V27.5008H106.046Z" fill="black"/>
<path d="M116.848 24.417C116.848 18.1169 121.94 12.6304 128.707 12.6304C135.473 12.6304 140.917 18.2494 140.508 24.8521H119.075C119.218 29.809 123.31 34.0185 128.716 34.0185C133.037 34.0185 136.663 31.1238 137.776 27.4346H140.184C138.909 32.363 134.284 36.1563 128.716 36.1563C121.959 36.1563 116.858 30.7076 116.858 24.3981L116.848 24.417ZM138.148 22.8183C137.596 18.4102 133.579 14.7493 128.707 14.7493C123.834 14.7493 119.903 18.3818 119.237 22.8183H138.157H138.148Z" fill="black"/>
<path d="M144.847 15.1939H139.499V13.0466H152.433V15.1939H147.084V35.759H144.838V15.1939H144.847Z" fill="black"/>
<path d="M154.404 13.1033H156.65V35.759H154.404V13.1033Z" fill="black"/>
<path d="M166.842 23.0454L159.913 13.1033H162.521L168.117 21.1724L173.685 13.1033H176.312L169.393 23.0454L178.31 35.759H175.626L168.117 24.9089L160.608 35.759H157.924L166.842 23.0454Z" fill="black"/>
<path d="M188.189 36.1753C181.289 36.1753 176.331 30.6982 176.331 24.3886C176.331 18.0791 181.289 12.6304 188.189 12.6304C195.089 12.6304 200.019 18.1075 200.019 24.3886C200.019 30.6698 195.06 36.1753 188.189 36.1753ZM188.189 33.9428C193.585 33.9428 197.773 29.7049 197.773 24.3886C197.773 19.0723 193.595 14.8628 188.189 14.8628C182.783 14.8628 178.577 19.0723 178.577 24.3886C178.577 29.7049 182.755 33.9428 188.189 33.9428Z" fill="black"/>
<path d="M202.54 13.1033H204.815L216.559 31.7103V13.075H218.805V35.759H216.616L204.786 17.0385V35.759H202.54V13.1033Z" fill="black"/>
<path d="M221.319 24.417C221.319 18.1169 226.41 12.6304 233.177 12.6304C239.944 12.6304 245.388 18.2494 244.978 24.8521H223.546C223.689 29.809 227.781 34.0185 233.187 34.0185C237.507 34.0185 241.134 31.1238 242.247 27.4346H244.655C243.38 32.363 238.754 36.1563 233.187 36.1563C226.429 36.1563 221.328 30.7076 221.328 24.3981L221.319 24.417ZM242.618 22.8183C242.066 18.4102 238.05 14.7493 233.177 14.7493C228.304 14.7493 224.374 18.3818 223.708 22.8183H242.628H242.618Z" fill="black"/>
<path d="M89.7819 24.4265C89.7819 22.88 88.5207 21.6264 86.9649 21.6264C85.409 21.6264 84.1478 22.88 84.1478 24.4265C84.1478 25.9729 85.409 27.2265 86.9649 27.2265C88.5207 27.2265 89.7819 25.9729 89.7819 24.4265Z" fill="url(#paint1_linear_2267_169)"/>
<path d="M190.998 24.4265C190.998 22.88 189.736 21.6264 188.18 21.6264C186.625 21.6264 185.363 22.88 185.363 24.4265C185.363 25.9729 186.625 27.2265 188.18 27.2265C189.736 27.2265 190.998 25.9729 190.998 24.4265Z" fill="url(#paint2_linear_2267_169)"/>
<defs>
<linearGradient id="paint0_linear_2267_169" x1="22.3569" y1="3.00026" x2="64.4276" y2="62.8145" gradientUnits="userSpaceOnUse">
<stop stop-color="#C08C40"/>
<stop offset="1" stop-color="#F4C778"/>
</linearGradient>
<linearGradient id="paint1_linear_2267_169" x1="84.1478" y1="24.4359" x2="89.7915" y2="24.4359" gradientUnits="userSpaceOnUse">
<stop stop-color="#C08C40"/>
<stop offset="1" stop-color="#F4C778"/>
</linearGradient>
<linearGradient id="paint2_linear_2267_169" x1="185.363" y1="24.4359" x2="190.998" y2="24.4359" gradientUnits="userSpaceOnUse">
<stop stop-color="#C08C40"/>
<stop offset="1" stop-color="#F4C778"/>
</linearGradient>
</defs>
</svg>
