<svg width="88" height="88" viewBox="0 0 88 88" fill="none" xmlns="http://www.w3.org/2000/svg">
<path d="M4.74482 4.81385L4.81031 4.74835C7.28827 2.28511 10.4247 0.745975 13.7286 0.214764C17.0362 -0.316455 20.511 0.167464 23.6509 1.75018C24.5678 2.21227 24.9353 3.33291 24.4732 4.24621C24.0111 5.16311 22.8904 5.53059 21.9771 5.06851C19.5501 3.84597 16.8648 3.47487 14.3104 3.88239C12.3528 4.19893 10.4644 4.98123 8.82338 6.1965L21.42 18.7926C22.1477 19.5203 22.1477 20.6992 21.42 21.4269C20.6922 22.1545 19.5133 22.1546 18.7856 21.4269L6.18903 8.83076C4.97007 10.4753 4.19144 12.3601 3.87482 14.3176C3.46365 16.8755 3.83844 19.557 5.06099 21.984C5.52309 22.9009 5.15195 24.0179 4.23866 24.48C3.32171 24.9421 2.20465 24.571 1.74253 23.6577C0.159741 20.5177 -0.324263 17.0428 0.207061 13.7358C0.738301 10.4356 2.27749 7.29924 4.74082 4.81784L4.74482 4.81385ZM82.939 66.0283C82.4769 65.1114 82.848 63.9944 83.7613 63.5323C84.6783 63.0702 85.7953 63.4413 86.2575 64.3546C87.8403 67.4946 88.3243 70.9694 87.7929 74.2765C87.2617 77.5766 85.7261 80.713 83.2628 83.1872L83.2592 83.1944L83.19 83.2636C80.7121 85.7268 77.5793 87.2623 74.2754 87.7935C70.9678 88.3247 67.493 87.8372 64.3531 86.2581C63.4362 85.796 63.0687 84.6754 63.5308 83.7621C63.9929 82.8452 65.1136 82.4777 66.0269 82.9398C68.4539 84.1623 71.1356 84.537 73.6935 84.1259C75.6512 83.8094 77.5396 83.0307 79.1806 81.8118L44.0018 46.6344L8.82306 81.8118C10.4677 83.0271 12.3562 83.8093 14.3101 84.1223C16.8681 84.5334 19.5498 84.1587 21.9768 82.9361C22.8937 82.4741 24.0108 82.8452 24.4729 83.7584C24.935 84.6753 24.5639 85.7924 23.6506 86.2545C20.5104 87.8372 17.0355 88.3212 13.7283 87.7899C10.428 87.2587 7.29149 85.7195 4.80999 83.2563L4.74449 83.1908C2.28116 80.702 0.738329 77.5693 0.210731 74.2729C-0.320509 70.9654 0.163429 67.4907 1.7462 64.351C2.20831 63.4341 3.329 63.0666 4.24233 63.5287C5.15927 63.9907 5.52676 65.1114 5.06466 66.0247C3.84207 68.4516 3.46733 71.1332 3.87849 73.6911C4.19505 75.6486 4.97374 77.5369 6.18906 79.1779L41.3678 44.0005L31.467 34.1C30.7393 33.3723 30.7393 32.1934 31.467 31.4657C32.1947 30.7381 33.3737 30.738 34.1013 31.4657L44.0022 41.3662L79.181 6.18879C77.5363 4.96988 75.6514 4.19128 73.6939 3.87468C71.1359 3.46716 68.4543 3.83829 66.0272 5.06079C65.1103 5.52288 63.9932 5.15176 63.5311 4.23849C63.069 3.32159 63.4402 2.20456 64.3535 1.74247C67.4936 0.159735 70.9722 -0.32425 74.2757 0.207053C77.576 0.738273 80.7125 2.27377 83.1868 4.73701L83.2559 4.80614L83.2595 4.81342C85.7192 7.29128 87.2584 10.424 87.7897 13.7241C88.3209 17.0315 87.837 20.5062 86.2542 23.646C85.7921 24.5629 84.6714 24.9304 83.7581 24.4683C82.8411 24.0062 82.4736 22.8856 82.9357 21.9723C84.1583 19.5454 84.5331 16.8602 84.1219 14.3059C83.8053 12.3484 83.0266 10.46 81.8077 8.81907L46.6289 43.9965L81.8077 79.1739C83.023 77.533 83.8053 75.6445 84.1219 73.6871C84.5331 71.1292 84.1583 68.4476 82.9357 66.0207L82.939 66.0283ZM23.0142 25.6478C22.2865 24.9201 22.2865 23.7412 23.0142 23.0135C23.7419 22.2858 24.9209 22.2858 25.6486 23.0135L29.8767 27.2415C30.6044 27.9692 30.6044 29.1481 29.8767 29.8757C29.149 30.6034 27.97 30.6034 27.2423 29.8757L23.0142 25.6478Z" fill="black"/>
</svg>
