<svg width="89" height="89" viewBox="0 0 89 89" fill="none" xmlns="http://www.w3.org/2000/svg">
<path d="M61.4872 27.3464C60.3686 25.5874 58.4266 24.5312 56.3433 24.5395H32.657C30.5695 24.5353 28.6275 25.604 27.5131 27.3671L24.0075 32.9102C22.7767 34.8273 22.7226 37.2724 23.862 39.2434L39.2107 65.8572C40.3043 67.745 42.3171 68.9094 44.5002 68.9094C46.6834 68.9094 48.6961 67.745 49.7898 65.8572L65.1385 39.2434C66.2779 37.2723 66.2238 34.8273 64.993 32.9102L61.4872 27.3464ZM63.7036 38.3453L48.3549 64.959H48.3591C47.569 66.3396 46.101 67.188 44.5125 67.188C42.9198 67.188 41.4519 66.3396 40.6618 64.959L25.3131 38.3453H25.3173C24.4856 36.9106 24.523 35.1309 25.4171 33.7337L28.9309 28.1905V28.1864C29.746 26.9098 31.1556 26.1363 32.6693 26.1363H56.3428C57.8565 26.1363 59.2662 26.9097 60.0812 28.1864L63.5951 33.7295V33.7337C64.4891 35.1309 64.5266 36.9107 63.6949 38.3453H63.7036ZM60.5557 37.5677H50.3343L56.2684 31.513H56.2642C56.4638 31.1804 56.4014 30.7521 56.1186 30.4818C55.8317 30.2156 55.3992 30.1865 55.079 30.4069L49.1242 36.4823L45.1986 30.5274C45.0323 30.307 44.7745 30.1781 44.5 30.1781C44.2256 30.1781 43.9677 30.307 43.8014 30.5274L39.8759 36.4823L33.921 30.4069C33.5966 30.0825 33.0685 30.0825 32.7441 30.4069C32.4198 30.7313 32.4198 31.2552 32.7441 31.5796L38.6781 37.6342H28.4526C27.9952 37.6342 27.6209 38.0085 27.6209 38.4659C27.6209 38.9275 27.9952 39.2976 28.4526 39.2976H39.6219L43.6805 62.9625C43.6763 63.0041 43.6763 63.0457 43.6805 63.0831C43.7013 63.1413 43.7262 63.1995 43.7553 63.2494L43.8218 63.3368L43.9549 63.4574V63.4615C43.9923 63.4865 44.0298 63.5114 44.0672 63.5281C44.1213 63.5613 44.1836 63.5863 44.246 63.5946H44.5329C44.5953 63.5863 44.6577 63.5613 44.7118 63.5281C44.7492 63.5114 44.7866 63.4865 44.8199 63.4615L44.9529 63.3409L45.0195 63.2536V63.2494C45.0527 63.1995 45.0777 63.1413 45.0985 63.0831C45.1026 63.0457 45.1026 63.0041 45.0985 62.9625L49.3774 39.2305H60.5467C61.0042 39.2305 61.3784 38.8604 61.3784 38.3988C61.3784 37.9414 61.0042 37.5672 60.5467 37.5672L60.5557 37.5677ZM44.5002 32.4445L47.8269 37.5677H41.1734L44.5002 32.4445ZM44.5002 57.8063L41.3065 39.231H47.6938L44.5002 57.8063ZM82.0586 35.3848C79.9212 34.6238 78.2038 32.9937 77.3347 30.8979C76.4656 28.8022 76.5238 26.436 77.501 24.3859C79.2641 20.6849 78.5032 16.2811 75.6048 13.3827C72.7105 10.4884 68.3026 9.73162 64.6059 11.499C62.5558 12.472 60.1938 12.5303 58.0979 11.6612C56.0021 10.792 54.3762 9.07877 53.6152 6.94137C52.2471 3.07823 48.5961 0.5 44.5 0.5C40.4039 0.5 36.7529 3.07823 35.3848 6.94137C34.6238 9.07877 32.9978 10.7921 30.9021 11.6612C28.8063 12.5303 26.4442 12.472 24.3941 11.499C20.6973 9.73162 16.2894 10.4885 13.3952 13.3827C10.4967 16.2811 9.73578 20.6849 11.499 24.3859C12.4762 26.436 12.5344 28.8021 11.6653 30.8979C10.7962 32.9938 9.0788 34.6239 6.94139 35.3848C3.07824 36.753 0.5 40.4039 0.5 44.5C0.5 48.5961 3.07824 52.247 6.94139 53.6152C9.0788 54.3762 10.7962 56.0063 11.6653 58.1021C12.5344 60.1978 12.4762 62.564 11.499 64.6141C9.73589 68.3151 10.4968 72.7189 13.3952 75.6173C16.2895 78.5116 20.6974 79.2684 24.3941 77.501C26.4442 76.528 28.8062 76.4697 30.9021 77.3388C32.9979 78.208 34.6238 79.9212 35.3848 82.0586C36.7529 85.9218 40.4039 88.5 44.5 88.5C48.5961 88.5 52.2471 85.9218 53.6152 82.0586C54.3762 79.9212 56.0022 78.2079 58.0979 77.3388C60.1937 76.4697 62.5558 76.528 64.6059 77.501C68.3027 79.2684 72.7106 78.5115 75.6048 75.6173C78.5033 72.7189 79.2642 68.3151 77.501 64.6141C76.5238 62.564 76.4655 60.1979 77.3347 58.1021C78.2038 56.0062 79.9212 54.3761 82.0586 53.6152C85.9218 52.247 88.5 48.5961 88.5 44.5C88.5 40.4039 85.9218 36.753 82.0586 35.3848ZM44.5002 78.366C35.518 78.366 26.9063 74.798 20.552 68.4482C14.2022 62.0941 10.6342 53.4817 10.6342 44.5001C10.6342 35.5185 14.2022 26.9063 20.552 20.552C26.9061 14.2022 35.5185 10.6343 44.5002 10.6343C53.4818 10.6343 62.094 14.2022 68.4483 20.552C74.7982 26.9061 78.3661 35.5185 78.3661 44.5001C78.3578 53.4781 74.7857 62.0896 68.4359 68.4354C62.0902 74.7852 53.4775 78.3577 44.5002 78.366ZM65.3249 12.9963C68.3855 11.545 72.0324 12.1771 74.4277 14.5723C76.8229 16.9676 77.4551 20.6145 76.0038 23.6751C75.5754 24.5858 75.2844 25.5588 75.1513 26.5568C72.0658 21.3089 67.6911 16.9343 62.4427 13.8482C63.4407 13.7152 64.4143 13.4246 65.3249 12.9963ZM44.5002 2.17194C47.9059 2.11788 50.9582 4.26782 52.0519 7.49468C52.3845 8.44279 52.8628 9.32858 53.4699 10.1228C47.5858 8.60086 41.4149 8.60086 35.53 10.1228C36.1372 9.33274 36.6153 8.44703 36.948 7.50724C38.0375 4.27612 41.0902 2.11786 44.5002 2.17194ZM14.5596 14.5601C16.93 12.1108 20.6101 11.4746 23.6624 12.984C24.5773 13.4165 25.5461 13.7034 26.5483 13.8407C21.3004 16.9303 16.9299 21.3091 13.8482 26.5567C13.7151 25.5587 13.424 24.5856 12.9957 23.675C11.4779 20.6185 12.1103 16.9346 14.5596 14.5601ZM7.48623 52.0397C4.29257 50.9044 2.15932 47.8771 2.15932 44.488C2.15932 41.0989 4.29257 38.0758 7.48623 36.9363C8.43434 36.6119 9.32428 36.1337 10.1227 35.5308C8.60071 41.4148 8.60071 47.5857 10.1227 53.4705C9.32844 52.8634 8.44273 52.3852 7.49453 52.0526L7.48623 52.0397ZM23.6663 75.992H23.6622C20.6016 77.4433 16.9588 76.8154 14.5594 74.416C12.1642 72.0207 11.532 68.3779 12.9834 65.3132C13.4158 64.4025 13.7028 63.4295 13.84 62.4315C16.9296 67.6877 21.3126 72.0706 26.5688 75.1603C25.5667 75.2892 24.5894 75.572 23.6745 76.0044L23.6663 75.992ZM44.4996 86.8291C41.0939 86.8832 38.0416 84.7332 36.9479 81.5064C36.6152 80.5583 36.137 79.6725 35.5299 78.8782C41.414 80.4002 47.5849 80.4002 53.4698 78.8782C52.8626 79.6683 52.3844 80.554 52.0518 81.4938C50.9623 84.7249 47.9096 86.8832 44.4996 86.8291ZM74.4401 74.441C72.0698 76.8903 68.3897 77.5265 65.3374 76.017C64.4225 75.5846 63.4537 75.2976 62.4515 75.1604C67.6994 72.0708 72.0699 67.692 75.1516 62.4444C75.2847 63.4424 75.5757 64.4155 76.0041 65.3261C77.5219 68.3825 76.8895 72.0665 74.4401 74.441ZM81.5135 52.0642C80.5654 52.3885 79.6755 52.8667 78.8771 53.4697C80.3991 47.5856 80.3991 41.4147 78.8771 35.5299C79.6672 36.137 80.5529 36.6152 81.4927 36.9479C84.6863 38.0873 86.8154 41.1105 86.8154 44.4996C86.8154 47.8887 84.6863 50.9118 81.4927 52.0513L81.5135 52.0642Z" fill="black" stroke="black"/>
</svg>
