<svg width="23" height="22" viewBox="0 0 23 22" fill="none" xmlns="http://www.w3.org/2000/svg">
<path d="M22.1551 0H0.387779C0.155112 0 0 0.180964 0 0.387779V17.1657C0 17.3725 0.180964 17.5535 0.387779 17.5535H1.70623C1.57697 18.8978 1.68038 20.3196 2.01645 21.6898C2.06816 21.8707 2.22327 22 2.40423 22H10.8061H11.168H20.3196C20.5006 22 20.6557 21.8707 20.7074 21.6898C21.0435 20.3196 21.121 18.8978 21.0176 17.5535H22.2068C22.4136 17.5535 22.5946 17.3725 22.5946 17.1657V0.387779C22.5429 0.180964 22.3878 0 22.1551 0ZM11.1939 19.0012H10.9354H4.96357C4.57579 17.1398 4.86016 15.3561 5.3772 14.2186L8.19506 16.4677C8.32432 16.5711 8.50529 16.5711 8.6604 16.4935L11.7368 14.4512L13.5464 17.2174C13.624 17.3208 13.7274 17.3984 13.8825 17.3984C14.0117 17.3984 14.141 17.3208 14.2186 17.1915L16.5194 13.1328C16.6745 13.2362 16.8038 13.3913 16.9072 13.5206C17.6827 14.5288 18.1998 16.7004 17.7344 19.0012H11.1939ZM20.7074 15.8472C20.785 16.0799 20.8108 16.3126 20.8625 16.5452C20.8108 16.3126 20.7591 16.0799 20.7074 15.8472ZM20.0094 21.1986H11.1422H10.7803H2.6886C2.01645 18.0447 2.74031 15.0458 3.80024 13.6757C4.11046 13.2879 4.60164 12.8226 5.22209 12.8226H5.40306C5.3255 12.9001 5.2738 12.9777 5.19624 13.0552C4.08461 14.4512 3.72268 17.114 4.29142 19.4924C4.34313 19.6733 4.49824 19.8026 4.6792 19.8026H10.9612H11.2197H18.0705C18.2515 19.8026 18.4066 19.6733 18.4583 19.4924C19.027 17.114 18.6392 14.4771 17.5535 13.0552C17.4759 12.9777 17.4242 12.9001 17.3466 12.8226H17.4759C18.0964 12.8226 18.5875 13.2879 18.8978 13.6757C19.9577 15.0458 20.6816 18.0447 20.0094 21.1986ZM21.7673 16.7779H20.8884C20.8884 16.7521 20.8884 16.7521 20.8884 16.7262V12.564C20.8884 12.228 20.604 11.9436 20.2679 11.9436H2.43008C2.09401 11.9436 1.80964 12.228 1.80964 12.564V16.7779C1.78378 16.7779 1.75793 16.7779 1.75793 16.7779H0.775558V0.775558H21.7932V16.7779H21.7673Z" fill="#002365"/>
<path d="M10.8061 16.4937C10.3925 16.4937 10.0564 16.8297 10.0564 17.2434C10.0564 17.657 10.3925 17.9931 10.8061 17.9931C11.2197 17.9931 11.5558 17.657 11.5558 17.2434C11.5558 16.8297 11.2197 16.4937 10.8061 16.4937Z" fill="#002365"/>
<path d="M2.86934 4.05826H4.31705C4.9892 4.05826 5.53209 3.51537 5.53209 2.84321C5.53209 2.17106 4.9892 1.62817 4.31705 1.62817H2.86934C2.19719 1.62817 1.6543 2.17106 1.6543 2.84321C1.6543 3.51537 2.19719 4.05826 2.86934 4.05826ZM2.86934 2.40373H4.31705C4.54971 2.40373 4.75653 2.61055 4.75653 2.84321C4.75653 3.07588 4.54971 3.2827 4.31705 3.2827H2.86934C2.63667 3.2827 2.42986 3.07588 2.42986 2.84321C2.42986 2.61055 2.61082 2.40373 2.86934 2.40373Z" fill="#002365"/>
<path d="M2.86934 9.22842H4.31705C4.9892 9.22842 5.53209 8.68553 5.53209 8.01338C5.53209 7.34123 4.9892 6.79834 4.31705 6.79834H2.86934C2.19719 6.79834 1.6543 7.34123 1.6543 8.01338C1.6543 8.68553 2.19719 9.22842 2.86934 9.22842ZM2.86934 7.5739H4.31705C4.54971 7.5739 4.75653 7.78071 4.75653 8.01338C4.75653 8.24605 4.54971 8.45286 4.31705 8.45286H2.86934C2.63667 8.45286 2.42986 8.24605 2.42986 8.01338C2.42986 7.78071 2.61082 7.5739 2.86934 7.5739Z" fill="#002365"/>
<path d="M7.03133 8.40153H20.6295C20.8363 8.40153 21.0172 8.22057 21.0172 8.01376C21.0172 7.80694 20.8621 7.62598 20.6553 7.62598H7.03133C6.82452 7.62598 6.64355 7.80694 6.64355 8.01376C6.64355 8.22057 6.82452 8.40153 7.03133 8.40153Z" fill="#002365"/>
<path d="M7.03133 3.23137H20.6295C20.8363 3.23137 21.0172 3.05041 21.0172 2.84359C21.0172 2.63677 20.8621 2.45581 20.6553 2.45581H7.03133C6.82452 2.45581 6.64355 2.63677 6.64355 2.84359C6.64355 3.05041 6.82452 3.23137 7.03133 3.23137Z" fill="#002365"/>
</svg>
