<svg width="73" height="89" viewBox="0 0 73 89" fill="none" xmlns="http://www.w3.org/2000/svg">
<path d="M72.2835 76.4769C72.5282 76.7967 72.569 77.2292 72.3877 77.5896C72.2065 77.9499 71.8393 78.1797 71.436 78.1797L60.0876 78.2292L54.3725 87.973C54.1821 88.3018 53.8286 88.5 53.4479 88.5H53.3799C52.9766 88.473 52.6231 88.2252 52.4645 87.8513L43.3367 66.382C43.0965 66.6117 42.8518 66.846 42.6161 67.0757C40.7987 68.8415 38.9224 70.666 36.5023 70.666C34.0776 70.666 32.2013 68.8416 30.3884 67.0757C30.1482 66.8415 29.908 66.6117 29.6678 66.382L20.5355 87.8513C20.3769 88.2207 20.0234 88.473 19.62 88.5H19.5521C19.1759 88.5 18.8224 88.3018 18.6275 87.973L12.9124 78.2292L1.564 78.1797C1.16064 78.1797 0.789004 77.9499 0.612255 77.5896C0.430969 77.2292 0.471762 76.7967 0.716494 76.4769L13.4384 59.7554C13.2979 59.0977 13.1892 58.4174 13.0849 57.7462C12.8356 56.1291 12.5728 54.4577 11.8657 53.4983C11.1633 52.5433 9.64946 51.7909 8.18108 51.0612C5.99207 49.9711 3.72603 48.8403 2.99624 46.6736C2.27564 44.5293 3.38147 42.25 4.45106 40.0471C5.19886 38.502 5.97386 36.9073 5.97386 35.5829C5.97386 34.2586 5.19886 32.6639 4.45106 31.1187C3.38146 28.9159 2.28015 26.6365 2.99624 24.4923C3.72139 22.3255 5.98743 21.1948 8.18108 20.1046C9.64494 19.3749 11.1587 18.618 11.8657 17.6676C12.5728 16.7081 12.8356 15.0369 13.0849 13.4196C13.452 11.0456 13.8372 8.59054 15.6501 7.27069C17.4629 5.95084 19.9329 6.32019 22.3259 6.68056C23.9756 6.92832 25.6797 7.18058 26.8535 6.79318C27.9956 6.41479 29.2101 5.2345 30.3886 4.09029C32.2014 2.32449 34.0823 0.5 36.5024 0.5C38.9271 0.5 40.8034 2.32438 42.6162 4.09029C43.79 5.23449 45.0092 6.4147 46.1513 6.79318C47.3251 7.18059 49.0293 6.92833 50.6789 6.68056C53.0719 6.32019 55.5464 5.9508 57.3548 7.27069C59.1676 8.59054 59.5528 11.0456 59.9199 13.4196C60.1737 15.0367 60.432 16.7081 61.1391 17.6676C61.8416 18.6226 63.3553 19.3749 64.8237 20.1046C67.0127 21.1948 69.2788 22.3255 70.0086 24.4923C70.7292 26.6365 69.6233 28.9159 68.5538 31.1187C67.806 32.6638 67.031 34.2586 67.031 35.5829C67.031 36.9073 67.806 38.5019 68.5538 40.0471C69.6233 42.25 70.7247 44.5293 70.0086 46.6736C69.2834 48.8403 67.0174 49.9711 64.8237 51.0612C63.3599 51.791 61.8461 52.5478 61.1391 53.4983C60.4321 54.4578 60.1692 56.129 59.9199 57.7462C59.8157 58.4174 59.7069 59.0977 59.5664 59.7554L72.2835 76.4769ZM27.95 64.9493C27.5783 64.697 27.2112 64.4898 26.8486 64.3727C25.6748 63.9853 23.9707 64.2376 22.3211 64.4853C19.9281 64.8412 17.4536 65.2151 15.6452 63.8952C15.0334 63.4492 14.5892 62.8636 14.2494 62.206L3.70763 76.0676L13.5287 76.1081C13.9094 76.1081 14.2584 76.3108 14.4488 76.6352L19.3978 85.068L27.95 64.9493ZM45.4717 62.3591C47.1305 61.8095 49.0929 62.1023 50.9919 62.3861C52.9543 62.6789 54.9847 62.9852 56.086 62.1834C57.1873 61.3816 57.5001 59.368 57.8037 57.4219C58.0938 55.5524 58.3929 53.6199 59.4126 52.2415C60.4188 50.8765 62.1682 50.0026 63.8586 49.1602C65.6624 48.2638 67.5252 47.3313 67.9693 45.9979C68.4135 44.669 67.5433 42.8716 66.6187 40.9661C65.7666 39.2048 64.8829 37.3893 64.8829 35.5784C64.8829 33.772 65.7666 31.9521 66.6187 30.1907C67.5432 28.2852 68.4134 26.4878 67.9693 25.1589C67.5206 23.8255 65.6579 22.8976 63.8586 21.9966C62.1682 21.1542 60.4188 20.2802 59.4081 18.9153C58.3929 17.5369 58.0893 15.6043 57.7992 13.7348C57.4955 11.7888 57.1828 9.77518 56.0815 8.97335C54.9802 8.17151 52.9498 8.47783 50.9874 8.77064C49.0884 9.05443 47.126 9.34725 45.4672 8.79767C43.8583 8.26611 42.4625 6.91021 41.1118 5.59486C39.6026 4.12636 38.0436 2.60827 36.4935 2.60827C34.9435 2.60827 33.3799 4.12636 31.8752 5.59486C30.5246 6.90571 29.1333 8.26166 27.5199 8.79767C25.8611 9.34724 23.8987 9.05444 21.9997 8.77064C20.0373 8.47783 18.0069 8.17151 16.9056 8.97335C15.8043 9.77519 15.4915 11.7888 15.1879 13.7348C14.8978 15.6043 14.5987 17.5369 13.579 18.9153C12.5729 20.2802 10.8235 21.1541 9.12848 21.9966C7.32467 22.893 5.46192 23.8254 5.01778 25.1589C4.57363 26.4877 5.4438 28.2851 6.3684 30.1907C7.22045 31.952 8.10423 33.7675 8.10423 35.5784C8.10423 37.3848 7.22045 39.2046 6.3684 40.9661C5.44384 42.8715 4.57365 44.6689 5.01778 45.9979C5.46647 47.3312 7.32919 48.2592 9.12848 49.1602C10.8189 50.0026 12.5683 50.8765 13.579 52.2415C14.5942 53.6199 14.8978 55.5524 15.1879 57.4219C15.4915 59.368 15.8043 61.3816 16.9056 62.1834C18.0069 62.9852 20.0373 62.6789 21.9997 62.3861C23.1146 62.2194 24.2567 62.0483 25.3444 62.0483C26.1058 62.0483 26.8356 62.1293 27.5199 62.3591C29.1287 62.8906 30.5246 64.2465 31.8752 65.5619C33.3845 67.0304 34.9435 68.5485 36.4935 68.5485C38.0436 68.5485 39.6026 67.0304 41.1118 65.5619C42.467 64.2465 43.8629 62.8906 45.4717 62.3591ZM69.2878 76.0627L58.7461 62.2011C58.4061 62.8588 57.9665 63.4444 57.3502 63.8903C55.5373 65.2102 53.0673 64.8408 50.6743 64.4804C49.0246 64.2327 47.3206 63.9804 46.1468 64.3678C45.7842 64.4849 45.4171 64.6922 45.0455 64.9444L53.5976 85.0622L58.5467 76.6293C58.7371 76.305 59.086 76.1023 59.4667 76.1023L69.2878 76.0627ZM36.4974 57.6966C24.2291 57.6966 14.2442 47.7727 14.2442 35.5781C14.2442 23.384 24.2285 13.4595 36.4974 13.4595C48.7662 13.4595 58.7506 23.3835 58.7506 35.5781C58.7506 47.7767 48.7707 57.6966 36.4974 57.6966ZM56.6158 35.5781C56.6158 24.555 47.5923 15.586 36.502 15.586C25.4118 15.586 16.3883 24.5549 16.3883 35.5781C16.3883 46.6012 25.4117 55.5701 36.502 55.5701C47.5922 55.5746 56.6158 46.6013 56.6158 35.5781ZM48.4307 26.0686C49.1785 26.8119 49.5864 27.7984 49.5864 28.8434C49.5864 29.8931 49.1739 30.8795 48.4307 31.6183L34.8792 45.0878C34.1087 45.8536 33.098 46.2365 32.0875 46.2365C31.0769 46.2365 30.0661 45.8536 29.2957 45.0878L22.5202 38.3533C20.9793 36.8217 20.9793 34.3305 22.5202 32.799C23.268 32.0557 24.2605 31.6503 25.3119 31.6503C26.3679 31.6503 27.3604 32.0602 28.1037 32.799L32.0829 36.7541L42.8377 26.0644C44.3831 24.5374 46.8898 24.537 48.4307 26.0686ZM47.4472 28.8434C47.4472 28.3614 47.2569 27.911 46.9169 27.5686C46.2099 26.8658 45.0587 26.8658 44.3518 27.5686L32.8401 39.0106C32.4231 39.4251 31.7479 39.4251 31.3309 39.0106L26.5948 34.3032C26.2504 33.9608 25.7972 33.7761 25.3122 33.7761C24.8272 33.7761 24.374 33.9653 24.0296 34.3032C23.3225 35.0059 23.3225 36.1502 24.0296 36.8528L30.8051 43.5874C31.5121 44.2901 32.6633 44.2901 33.3702 43.5874L46.9217 30.1179C47.2616 29.78 47.4472 29.3255 47.4472 28.8434Z" fill="black" stroke="black"/>
</svg>
