<svg width="67" height="73" viewBox="0 0 67 73" fill="none" xmlns="http://www.w3.org/2000/svg">
<path d="M65.6726 72.4999H0.962217C0.706919 72.4999 0.5 72.2924 0.5 72.0364V33.4098C0.5 33.2508 0.58135 33.1028 0.715393 33.0178C0.849436 32.933 1.01768 32.9229 1.16097 32.9912L33.3174 48.347L65.4739 32.9912C65.6172 32.9231 65.7853 32.9328 65.9195 33.0178C66.0537 33.1028 66.1349 33.2508 66.1349 33.4098V72.0364C66.1349 72.2924 65.9279 72.4999 65.6726 72.4999ZM1.42443 71.5729H65.2104V34.1439L33.5162 49.279C33.3905 49.3391 33.2444 49.3391 33.1187 49.279L1.42443 34.1439V71.5729Z" fill="#002365" stroke="#002365"/>
<path d="M57.9695 37.5522C57.7142 37.5522 57.5073 37.3447 57.5073 37.0887V1.42704H9.12854V37.0887C9.12854 37.3447 8.92162 37.5522 8.66632 37.5522C8.41102 37.5522 8.2041 37.3447 8.2041 37.0887V0.963519C8.2041 0.707502 8.41102 0.5 8.66632 0.5H57.9695C58.2248 0.5 58.4317 0.707502 58.4317 0.963519V37.0887C58.4317 37.3447 58.2248 37.5522 57.9695 37.5522Z" fill="#002365" stroke="#002365"/>
<path d="M65.6736 33.8734C65.5294 33.8734 65.3873 33.8059 65.297 33.6794L57.5934 22.8639C57.445 22.6555 57.4933 22.3659 57.701 22.2171C57.9086 22.0685 58.1972 22.1167 58.3458 22.3248L66.0494 33.1403C66.1977 33.3487 66.1495 33.6383 65.9418 33.787C65.8605 33.8453 65.7667 33.8734 65.6736 33.8734Z" fill="#002365" stroke="#002365"/>
<path d="M0.961875 33.8735C0.868816 33.8735 0.774985 33.8453 0.693635 33.7871C0.485946 33.6383 0.437721 33.3488 0.586092 33.1403L8.28971 22.3249C8.43809 22.1166 8.72666 22.0685 8.93451 22.2172C9.1422 22.366 9.19042 22.6555 9.04205 22.8639L1.33843 33.6794C1.24799 33.8059 1.10609 33.8735 0.961875 33.8735Z" fill="#002365" stroke="#002365"/>
<path d="M65.6728 72.5001C65.5545 72.5001 65.4361 72.4548 65.346 72.3643L49.1684 56.1411C48.9878 55.9602 48.9878 55.6666 49.1684 55.4857C49.3488 55.3046 49.6415 55.3046 49.822 55.4857L65.9996 71.7088C66.1801 71.8898 66.1801 72.1833 65.9996 72.3643C65.9094 72.4548 65.7911 72.5001 65.6728 72.5001Z" fill="#002365" stroke="#002365"/>
<path d="M0.962217 72.5001C0.843889 72.5001 0.725562 72.4548 0.63543 72.3643C0.454857 72.1833 0.454857 71.8898 0.63543 71.7088L16.813 55.4857C16.9935 55.3046 17.2862 55.3046 17.4666 55.4857C17.6472 55.6666 17.6472 55.9602 17.4666 56.1411L1.289 72.3643C1.19887 72.4548 1.08054 72.5001 0.962217 72.5001Z" fill="#002365" stroke="#002365"/>
<path d="M41.2003 24.7525H25.4344C25.2563 24.7525 25.094 24.6499 25.0173 24.4887C24.9406 24.3276 24.9629 24.1366 25.0749 23.9975L30.1756 17.6677C30.2635 17.5588 30.3955 17.4956 30.5351 17.4956H36.0996C36.2392 17.4956 36.3714 17.5588 36.459 17.6677L41.5597 23.9975C41.6718 24.1364 41.6941 24.3276 41.6174 24.4887C41.5406 24.6499 41.3784 24.7525 41.2003 24.7525ZM26.4021 23.8254H40.2326L35.8788 18.4226H30.7557L26.4021 23.8254Z" fill="#002365" stroke="#002365"/>
<path d="M43.0168 30.7834H23.6184C23.4383 30.7834 23.2747 30.6785 23.1991 30.5147C23.1234 30.351 23.1494 30.1578 23.2659 30.0202L28.3666 23.9895C28.4545 23.8856 28.5834 23.8257 28.7192 23.8257H37.9159C38.0516 23.8257 38.1806 23.8856 38.2684 23.9895L43.3691 30.0202C43.4856 30.158 43.5117 30.351 43.436 30.5147C43.3604 30.6785 43.1969 30.7834 43.0168 30.7834ZM24.6167 29.8564H42.0185L37.7019 24.7527H28.9332L24.6167 29.8564Z" fill="#002365" stroke="#002365"/>
<path d="M39.887 18.4229H26.7488C26.5686 18.4229 26.4048 18.3177 26.3291 18.1536C26.2536 17.9893 26.2801 17.7962 26.3971 17.6587L32.9663 9.93336C33.0539 9.82999 33.1826 9.77051 33.3179 9.77051C33.4531 9.77051 33.5818 9.82999 33.6696 9.93336L40.2388 17.6587C40.3557 17.7963 40.3824 17.9895 40.3067 18.1536C40.2311 18.3177 40.0673 18.4229 39.887 18.4229ZM27.7503 17.4958H38.8853L33.3179 10.9483L27.7503 17.4958Z" fill="#002365" stroke="#002365"/>
<path d="M33.3177 35.4184C33.0624 35.4184 32.8555 35.2109 32.8555 34.9549V30.3197C32.8555 30.0637 33.0624 29.8562 33.3177 29.8562C33.573 29.8562 33.7799 30.0637 33.7799 30.3197V34.9549C33.7799 35.2109 33.573 35.4184 33.3177 35.4184Z" fill="#002365" stroke="#002365"/>
<path d="M25.6141 10.2339C26.465 10.2339 27.1548 9.54218 27.1548 8.68886C27.1548 7.83555 26.465 7.1438 25.6141 7.1438C24.7632 7.1438 24.0734 7.83555 24.0734 8.68886C24.0734 9.54218 24.7632 10.2339 25.6141 10.2339Z" fill="#002365"/>
<path d="M25.6143 10.3113C24.7223 10.3113 23.9966 9.58356 23.9966 8.68897C23.9966 7.79438 24.7223 7.06665 25.6143 7.06665C26.5064 7.06665 27.2321 7.79438 27.2321 8.68897C27.2321 9.58356 26.5064 10.3113 25.6143 10.3113ZM25.6143 7.22116C24.8073 7.22116 24.1507 7.87966 24.1507 8.68897C24.1507 9.49827 24.8073 10.1568 25.6143 10.1568C26.4214 10.1568 27.078 9.49827 27.078 8.68897C27.078 7.87966 26.4214 7.22116 25.6143 7.22116Z" fill="#002365"/>
<path d="M20.9918 19.5044C21.8427 19.5044 22.5325 18.8127 22.5325 17.9594C22.5325 17.1061 21.8427 16.4143 20.9918 16.4143C20.1409 16.4143 19.451 17.1061 19.451 17.9594C19.451 18.8127 20.1409 19.5044 20.9918 19.5044Z" fill="#002365"/>
<path d="M20.9923 19.5815C20.1002 19.5815 19.3745 18.8538 19.3745 17.9592C19.3745 17.0646 20.1002 16.3369 20.9923 16.3369C21.8844 16.3369 22.61 17.0646 22.61 17.9592C22.61 18.8538 21.8844 19.5815 20.9923 19.5815ZM20.9923 16.4914C20.1852 16.4914 19.5286 17.1499 19.5286 17.9592C19.5286 18.7685 20.1852 19.427 20.9923 19.427C21.7993 19.427 22.456 18.7685 22.456 17.9592C22.456 17.1499 21.7993 16.4914 20.9923 16.4914Z" fill="#002365"/>
<path d="M42.5615 11.779C43.4124 11.779 44.1022 11.0872 44.1022 10.2339C44.1022 9.38059 43.4124 8.68884 42.5615 8.68884C41.7106 8.68884 41.0208 9.38059 41.0208 10.2339C41.0208 11.0872 41.7106 11.779 42.5615 11.779Z" fill="#002365"/>
<path d="M42.5621 11.8562C41.67 11.8562 40.9443 11.1285 40.9443 10.2339C40.9443 9.3393 41.67 8.61157 42.5621 8.61157C43.4542 8.61157 44.1799 9.3393 44.1799 10.2339C44.1799 11.1285 43.4542 11.8562 42.5621 11.8562ZM42.5621 8.76608C41.7551 8.76608 41.0984 9.42459 41.0984 10.2339C41.0984 11.0432 41.7551 11.7017 42.5621 11.7017C43.3691 11.7017 44.0258 11.0432 44.0258 10.2339C44.0258 9.42459 43.3691 8.76608 42.5621 8.76608Z" fill="#002365"/>
<path d="M45.6436 22.5945C46.4945 22.5945 47.1844 21.9028 47.1844 21.0495C47.1844 20.1961 46.4945 19.5044 45.6436 19.5044C44.7927 19.5044 44.1029 20.1961 44.1029 21.0495C44.1029 21.9028 44.7927 22.5945 45.6436 22.5945Z" fill="#002365"/>
<path d="M45.6436 22.6716C44.7516 22.6716 44.0259 21.9439 44.0259 21.0493C44.0259 20.1547 44.7516 19.427 45.6436 19.427C46.5357 19.427 47.2614 20.1547 47.2614 21.0493C47.2614 21.9439 46.5357 22.6716 45.6436 22.6716ZM45.6436 19.5815C44.8366 19.5815 44.18 20.24 44.18 21.0493C44.18 21.8586 44.8366 22.5171 45.6436 22.5171C46.4507 22.5171 47.1073 21.8586 47.1073 21.0493C47.1073 20.24 46.4507 19.5815 45.6436 19.5815Z" fill="#002365"/>
</svg>
