<svg width="72" height="72" viewBox="0 0 72 72" fill="none" xmlns="http://www.w3.org/2000/svg">
<path fill-rule="evenodd" clip-rule="evenodd" d="M67.9189 4.12349C67.884 3.83059 67.6515 3.5955 67.3532 3.56083C57.1432 2.36616 46.9491 5.88859 39.6802 13.1146L36.7238 16.0589L20.4888 32.2065C18.6716 34.0139 18.6716 36.9429 20.4888 38.7465L32.5428 50.7394C34.3562 52.543 37.301 52.543 39.1182 50.7394L52.8158 37.1127L55.3538 34.5922L58.3141 31.6479C65.5792 24.418 69.1205 14.2785 67.9189 4.12349ZM55.481 38.8238L60.5027 33.8254C68.442 25.9326 72.3087 14.8532 70.9993 3.76496C70.7939 2.04997 69.4378 0.701107 67.7135 0.500731C56.5662 -0.805711 45.4298 3.04041 37.4904 10.9369L32.4687 15.9315L20.4068 15.5692C16.5631 15.4536 12.8433 16.9181 10.1235 19.6235L1.54484 28.1559C-0.342109 30.0327 0.878384 33.2469 3.54418 33.4126L16.1328 34.1949C15.7957 36.195 16.2529 38.3032 17.5083 40.0142L12.8586 48.1497C12.1728 49.356 12.3781 50.8706 13.3623 51.8533L19.3643 57.823C20.3524 58.8018 21.8751 59.0099 23.0879 58.324L31.2675 53.6993C32.9879 54.9479 35.1074 55.4028 37.1183 55.0674L37.9049 67.5922C38.0715 70.2398 41.303 71.4538 43.19 69.5769L51.7686 61.0445C54.4887 58.3391 55.965 54.6393 55.8487 50.8165L55.481 38.8238ZM52.4703 41.8144L41.3111 52.9175L40.1602 54.0621L40.9972 67.4008L49.5758 58.8684C51.6914 56.7642 52.8384 53.8853 52.7492 50.9101L52.4703 41.8144ZM20.3139 18.6492L29.4583 18.9267L18.2951 30.0298H18.2912L17.1444 31.1705L3.7374 30.3381L12.3122 21.8056C14.4277 19.7014 17.3226 18.5606 20.3139 18.6492ZM19.7327 42.358L15.5557 49.6727L21.5577 55.6423L28.912 51.4879L19.7327 42.358ZM53.6131 23.2389C54.9886 21.8708 54.9886 19.6548 53.6131 18.2867C52.2376 16.9186 50.0057 16.9186 48.6302 18.2867C47.2547 19.6548 47.2547 21.8708 48.6302 23.2389C50.0057 24.607 52.2376 24.607 53.6131 23.2389ZM55.8061 16.1053C58.3906 18.6759 58.3906 22.8496 55.8061 25.4201C53.2178 27.9907 49.0254 27.9907 46.4409 25.4201C43.8526 22.8496 43.8526 18.6759 46.4409 16.1053C49.0254 13.5348 53.2178 13.5348 55.8061 16.1053ZM12.9706 60.7791C13.575 60.1779 13.575 59.199 12.9706 58.5978C12.3661 57.9967 11.3819 57.9966 10.7775 58.5978L0.703447 68.6176C0.0989835 69.2189 0.0989835 70.1978 0.703447 70.7989C1.30791 71.4 2.29212 71.4001 2.89651 70.7989L12.9706 60.7791ZM27.307 63.6078C27.9114 64.2091 27.9114 65.188 27.307 65.7891L22.2698 70.7991C21.6654 71.4003 20.6811 71.4003 20.0768 70.7991C19.4724 70.1979 19.4723 69.219 20.0768 68.6179L25.1139 63.6078C25.7184 63.0066 26.7026 63.0066 27.307 63.6078ZM7.93354 46.9049C8.538 46.3037 8.538 45.3248 7.93354 44.7236C7.32908 44.1225 6.34486 44.1224 5.74048 44.7236L0.703348 49.7336C0.0988842 50.3348 0.0988842 51.3138 0.703348 51.9149C1.30781 52.516 2.29203 52.5161 2.89641 51.9149L7.93354 46.9049Z" fill="#002365" stroke="white" stroke-width="0.5"/>
</svg>
