<svg width="721" height="596" viewBox="0 0 721 596" fill="none" xmlns="http://www.w3.org/2000/svg">
<path opacity="0.25" d="M31.4715 210.599C76.0044 127.419 177.717 76.1279 265.874 92.7116C295.934 98.3867 323.55 110.358 347.892 128.643L347.893 128.643C374.552 148.601 400.35 169.55 427.522 190.853L428.075 191.287L428.303 190.622C433.972 174.076 439.516 157.37 445.296 140.73L445.295 140.729C453.796 116.15 461.635 91.2962 471.232 67.2199C491.105 17.4925 541.223 0.619327 581.196 0.500361C590.683 0.478314 598.287 3.65344 603.222 9.15206C608.155 14.6495 610.476 22.5305 609.281 32.0303L609.281 32.0313C607.394 47.1623 603.214 62.3609 598.066 76.8549L598.064 76.8573C578.24 133.385 558.011 189.776 537.36 245.976L533.224 257.213C531.564 261.712 531.088 265.182 532.009 268.312C532.929 271.436 535.213 274.125 538.839 277.125L538.84 277.126C583.406 314.086 627.653 351.452 671.861 388.871L690.806 404.91C697.944 410.974 704.818 417.465 710.804 424.609L711.989 426.047C718.11 433.606 720.641 441.336 719.745 448.54C718.877 455.516 714.784 462.085 707.444 467.592L706.724 468.122C692.237 478.503 670.173 487.602 646.419 489.913C622.672 492.222 597.275 487.744 576.067 471.029C547.449 448.458 520.468 423.855 492.708 400.116L492.709 400.116C489.977 397.772 487.174 395.443 483.915 392.688L483.731 392.905L483.161 392.729C472.966 417.016 463.377 440.757 453.115 464.197L451.054 468.882C430.366 515.687 396.937 550.148 350.275 572.34C227.48 630.659 75.8474 572.049 24.8029 446.669L24.2076 445.191C-7.40336 365.894 -9.73858 287.668 31.4715 210.599ZM151.98 546.396L151.774 547.348C188.593 564.704 228.354 574.579 272.606 567.836L274.154 567.601L272.755 566.896C259.697 560.318 248.019 554.148 236.213 548.471L233.849 547.342C230.678 545.806 226.717 545.516 223.274 545.528L223.272 545.528C199.258 545.675 175.313 546.081 151.98 546.396ZM520.248 294.077C511.477 316.54 503.287 336.771 495.957 357.327L495.956 357.329C495.28 359.254 495.262 361.926 495.735 364.392C496.206 366.848 497.191 369.239 498.647 370.529L498.648 370.529C529.703 397.978 560.859 425.266 592.84 451.705C605.313 462.023 623.769 466.264 642.662 464.711C661.562 463.157 680.972 455.801 695.387 442.833L695.812 442.45L695.376 442.08C637.365 392.793 579.765 343.742 521.037 293.878L520.503 293.423L520.248 294.077ZM584.659 28.2386C550.016 19.9912 508.744 42.8137 493.626 77.7048C488.372 89.8226 484.327 102.529 480.048 115.05C459.515 175.062 440.733 235.752 418.094 294.904C398.675 345.547 376.322 395.137 353.561 444.502L349.004 454.372C338.264 477.662 320.89 496.942 299.566 512.08L298.549 512.796C289.159 519.326 282.54 522.292 276.09 521.655C269.761 521.03 263.464 516.923 254.778 508.903C281.032 496.785 304.688 480.275 318.199 454.787C342.696 408.532 364.578 360.874 387.776 313.242L387.953 312.878L387.634 312.629C347.317 281.183 310.821 250.766 272.084 223.477C253.783 210.576 231.841 201.891 210.511 194.538L210.512 194.537C203.683 192.17 196.351 191.305 188.914 190.848C181.669 190.403 174.381 190.344 167.25 189.682C171.57 178.424 175.118 172.094 180.395 168.916C185.765 165.683 193.043 165.64 205.115 167.336L205.116 167.337C240.035 172.187 270.117 187.878 297.513 209.133C329.56 234.009 361.118 259.429 394.393 285.729L394.677 285.953L394.979 285.755L395.157 285.637L395.296 285.545L395.353 285.388C402.946 264.289 410.151 245.09 416.495 225.566L416.496 225.565C417.05 223.841 416.973 221.417 416.457 219.191C415.944 216.975 414.962 214.808 413.576 213.678L413.574 213.676C384.498 190.18 355.774 165.997 325.125 144.57C310.183 134.103 292.331 126.534 274.651 121.413L272.941 120.925C253.325 115.378 234.961 115.307 218.014 120.41C201.068 125.513 185.569 135.781 171.667 150.864C155.934 167.921 145.717 187.985 140.211 210.057L139.952 211.11C112.582 323.602 139.146 421.957 220.457 504.214C246.794 530.858 283.931 548.793 321.135 546.783C358.375 544.77 395.576 522.779 422.006 469.788L422.008 469.783C422.584 468.603 423.252 467.35 423.765 466.078L423.767 466.079C433.289 443.849 443.711 421.953 452.094 399.294L452.095 399.295C494.408 285.049 536.306 170.564 578.072 56.1159C581.278 47.335 582.774 37.8463 585.028 28.8464L585.151 28.3554L584.659 28.2386ZM112.46 209.482C51.4527 238.452 14.8561 314.156 33.9422 392.471C55.3868 480.374 134.094 528.269 198.302 520.886L199.277 520.773L198.612 520.051C116.881 431.155 87.9335 328.077 113.164 210.038L113.376 209.048L112.46 209.482ZM151.499 132.831C151.498 132.832 151.496 132.834 151.495 132.836C151.082 133.426 150.265 134.042 149.148 134.664C148.046 135.279 146.711 135.87 145.322 136.434C143.931 136.998 142.51 137.526 141.222 138.025C139.946 138.519 138.791 138.988 137.978 139.424C133.42 141.836 128.936 144.508 124.541 147.224L124.538 147.227C116.061 152.58 107.972 158.599 100.339 165.267C84.9158 178.662 71.4559 194.438 60.1162 211.378C60.0671 211.413 60.0188 211.449 59.9697 211.484L59.3337 211.937L60.0101 212.326L60.0927 212.373L60.4988 212.606L60.7576 212.217C60.7867 212.174 60.8155 212.13 60.8447 212.086C71.6877 204.358 82.215 195.437 93.8474 189.214C96.7819 187.644 99.7383 186.199 102.67 184.761C105.599 183.325 108.505 181.896 111.323 180.365C116.962 177.302 122.276 173.819 126.802 169.002L126.803 169.001C131.813 163.619 136.076 157.652 140.141 151.571C144.214 145.478 148.074 139.293 152.31 133.415L152.309 133.414C152.31 133.412 152.313 133.411 152.314 133.409L151.499 132.831Z" stroke="url(#paint0_linear_2267_335)"/>
<defs>
<linearGradient id="paint0_linear_2267_335" x1="271.891" y1="71.1522" x2="403.563" y2="562.561" gradientUnits="userSpaceOnUse">
<stop stop-color="#C08C40"/>
<stop offset="1" stop-color="#EABC6D"/>
</linearGradient>
</defs>
</svg>
