<svg width="67" height="71" viewBox="0 0 67 71" fill="none" xmlns="http://www.w3.org/2000/svg">
<path d="M50.9056 27.4497C53.8535 27.0557 57.5452 29.4023 57.9515 32.4183C58.6167 37.3591 56.7556 47.3898 55.5673 52.4417C54.247 58.0569 52.0152 62.8967 51.157 68.7266C51.0504 69.444 51.4414 71.0126 50.2379 71.0051C48.4986 70.995 49.24 67.6354 49.4228 66.4962C50.0551 62.5153 51.7486 58.8526 52.8302 55.0106C54.0871 50.5472 54.7777 45.9297 55.4353 41.3426L53.4168 44.7526C51.2078 49.2918 45.2512 49.5773 43.5195 44.6188C40.9043 46.5436 36.4051 45.3867 35.6637 42.0979C34.7344 42.1787 34.2647 42.7445 33.2593 42.8556C30.2124 43.1916 28.1329 42.065 26.8812 39.3117L20.7316 40.1049C20.7265 41.2668 19.8988 44.5379 18.4033 42.747C18.0478 42.3227 18.8095 38.8267 19.1879 38.4402C19.5459 38.0765 24.3345 37.733 25.5304 37.4374C27.0335 37.0661 28.6915 36.1265 29.6894 35.0201C29.9306 34.7549 30.9081 33.31 30.9944 33.0321C31.4997 31.4079 29.7478 31.4332 28.5722 31.1276C25.6878 30.3824 19.7998 28.8769 17.0271 28.7329C15.4377 28.6521 13.7975 29.3467 12.8936 30.6678C11.8373 32.2162 9.2094 41.0167 9.05198 42.9794C8.3055 52.3432 23.7607 57.428 24.7636 67.4333C24.8906 68.6913 25.2054 71.6871 23.2402 70.7121C22.3921 70.2902 22.8365 68.5271 22.7349 67.6859C21.638 58.5369 7.58441 53.8487 7.01058 44.5026C6.83031 41.5497 8.49593 36.7352 9.48616 33.8354C10.8801 29.756 12.0963 26.7122 17.149 26.7071C17.6314 23.5522 17.2683 20.5185 19.9445 18.2678C22.872 15.805 26.8583 16.6462 29.2323 19.3894C33.338 16.1208 38.3907 17.4823 40.8993 21.9027C45.5813 20.228 50.0551 22.514 50.9031 27.4422L50.9056 27.4497ZM19.2006 27.2199L27.0614 28.6344L28.072 21.8017C27.5185 19.0332 23.7048 18.0784 21.4857 19.551C19.2666 21.0237 19.5027 24.8581 19.2031 27.2199H19.2006ZM29.0749 29.2457C33.4827 29.708 34.054 32.633 31.5683 35.884C30.8522 36.8211 29.471 37.5865 29.0521 38.1876C28.4376 39.0692 30.0474 40.4838 30.8395 40.7288C32.787 41.3325 34.8259 40.7086 35.3438 38.6322C35.9938 34.0223 38.3424 28.7582 38.8985 24.267C39.4545 19.7758 32.4899 17.9672 30.1565 21.6223L29.0774 29.2457H29.0749ZM42.6969 23.5067C42.0088 23.6204 41.0618 23.9765 40.8586 24.704L37.1821 39.7133C36.9206 43.6437 41.6534 45.0457 43.6211 41.5674C45.7463 37.8062 46.7924 32.5093 48.8338 28.5991C49.014 24.9591 46.2008 22.9207 42.6969 23.5067ZM50.7812 29.5337L50.408 29.9176L45.3045 43.0148C45.1166 45.2376 47.8131 47.1548 49.7351 45.8868C51.5252 44.7072 55.6283 37.0055 55.9203 34.8988C56.4078 31.4105 54.3308 29.1472 50.7787 29.5337H50.7812Z" fill="#002365"/>
<path d="M29.6486 48.0925C29.4684 47.9106 29.3643 47.5317 29.3643 47.274C29.3592 45.324 32.0074 46.8977 32.8555 47.5443C34.7115 48.9563 36.1308 51.2676 36.7504 53.5031C36.9992 54.3948 37.738 56.6353 36.0572 56.4863C35.0238 56.3953 34.8791 54.1295 34.5211 53.2C33.9904 51.8258 33.0078 50.2244 31.8398 49.31C31.266 48.8604 29.8949 48.3451 29.6461 48.0925H29.6486Z" fill="#002365"/>
<path d="M1.22345 43.5344L1.26551 44.2759C1.28202 44.567 1.53262 44.7897 1.82523 44.7732L2.84177 44.7162C3.13438 44.6997 3.3582 44.4504 3.34168 44.1593L3.29962 43.4179C3.28311 43.1268 3.03252 42.9041 2.73991 42.9205L1.72337 42.9776C1.43076 42.994 1.20694 43.2433 1.22345 43.5344Z" fill="#002365"/>
<path d="M1.34889 32.576C0.867376 32.445 0.370243 32.7271 0.238515 33.2061C0.106787 33.6851 0.390346 34.1797 0.871864 34.3108L3.21561 34.9486C3.69713 35.0797 4.19426 34.7976 4.32599 34.3186C4.45772 33.8395 4.17416 33.3449 3.69264 33.2139L1.34889 32.576Z" fill="#002365"/>
<path d="M3.81982 21.5843C3.40513 21.3078 2.84366 21.4181 2.56573 21.8306C2.2878 22.2432 2.39867 22.8018 2.81336 23.0783L7.04858 25.9021C7.46327 26.1786 8.02474 26.0683 8.30267 25.6557C8.58059 25.2432 8.46972 24.6846 8.05503 24.4081L3.81982 21.5843Z" fill="#002365"/>
<path d="M10.5949 11.7461C10.29 11.3528 9.7224 11.2799 9.32709 11.5832C8.93179 11.8865 8.85847 12.4511 9.16334 12.8444L13.5779 18.539C13.8827 18.9323 14.4503 19.0053 14.8457 18.702C15.241 18.3987 15.3143 17.834 15.0094 17.4407L10.5949 11.7461Z" fill="#002365"/>
<path d="M20.6242 3.83756C20.4608 3.36828 19.9459 3.11967 19.4742 3.28226C19.0025 3.44485 18.7526 3.95708 18.916 4.42635L22.118 13.6202C22.2814 14.0895 22.7963 14.3381 23.268 14.1755C23.7397 14.0129 23.9896 13.5007 23.8262 13.0314L20.6242 3.83756Z" fill="#002365"/>
<path d="M33.4853 0.89906C33.4803 0.402446 33.0715 0.00393621 32.5723 0.00896356C32.0731 0.0139909 31.6726 0.420652 31.6776 0.917266L31.7869 11.6546C31.7919 12.1512 32.2007 12.5497 32.6999 12.5447C33.1991 12.5397 33.5996 12.133 33.5946 11.6364L33.4853 0.89906Z" fill="#002365"/>
<path d="M46.3507 4.03596C46.5044 3.56347 46.2441 3.05643 45.7691 2.90345C45.2942 2.75048 44.7845 3.0095 44.6308 3.48199L41.5838 12.8447C41.43 13.3172 41.6904 13.8242 42.1653 13.9772C42.6403 14.1302 43.1499 13.8712 43.3037 13.3987L46.3507 4.03596Z" fill="#002365"/>
<path d="M56.4175 12.1296C56.7142 11.7302 56.6293 11.1671 56.2279 10.8719C55.8264 10.5767 55.2604 10.6612 54.9637 11.0605L50.4934 17.0773C50.1967 17.4767 50.2816 18.0397 50.683 18.3349C51.0845 18.6301 51.6504 18.5457 51.9472 18.1463L56.4175 12.1296Z" fill="#002365"/>
<path d="M63.2184 22.178C63.6273 21.8931 63.7267 21.3324 63.4403 20.9256C63.154 20.5188 62.5904 20.4199 62.1814 20.7048L57.5849 23.9067C57.176 24.1915 57.0766 24.7523 57.363 25.1591C57.6493 25.5659 58.2129 25.6648 58.6219 25.3799L63.2184 22.178Z" fill="#002365"/>
<path d="M65.5612 33.4889C66.04 33.3481 66.3133 32.8479 66.1718 32.3716C66.0303 31.8954 65.5274 31.6234 65.0487 31.7642L62.1293 32.6229C61.6506 32.7637 61.3772 33.2639 61.5188 33.7402C61.6603 34.2164 62.1631 34.4884 62.6418 34.3476L65.5612 33.4889Z" fill="#002365"/>
<path d="M64.626 43.5748L64.6488 42.9437C64.6605 42.6217 64.4075 42.3512 64.0838 42.3396L63.3378 42.3129C63.0141 42.3013 62.7422 42.553 62.7306 42.8751L62.7077 43.5062C62.6961 43.8282 62.9491 44.0987 63.2728 44.1103L64.0188 44.1369C64.3425 44.1485 64.6144 43.8969 64.626 43.5748Z" fill="#002365"/>
</svg>
