<svg width="72" height="72" viewBox="0 0 72 72" fill="none" xmlns="http://www.w3.org/2000/svg">
<path d="M24.3876 71.999H46.2882C46.9323 71.999 47.4494 71.4773 47.4494 70.8377C47.4494 70.1981 46.9323 69.6764 46.2882 69.6764H24.3876C19.3116 69.6719 14.3942 67.9164 10.4616 64.7093C6.52867 61.5022 3.81593 57.0385 2.78622 52.0711L10.3119 41.3429C11.9449 38.8162 14.7166 37.2603 17.7241 37.1832C20.7225 37.2558 23.4896 38.8162 25.1091 41.3429L31.3555 50.2385C31.5778 50.5379 31.9316 50.7148 32.3081 50.7148C32.6846 50.7148 33.0385 50.5379 33.2607 50.2385L47.613 29.7025C49.246 27.1803 52.0177 25.6244 55.0206 25.5473C58.0191 25.6289 60.7816 27.1849 62.4057 29.7025L69.6047 39.9226V46.287H69.6092C69.6092 46.9312 70.1263 47.4483 70.7705 47.4483C71.4101 47.4483 71.9317 46.9312 71.9317 46.287V24.3865C71.9227 17.9314 69.3643 11.7437 64.8053 7.17635C60.2464 2.60382 54.068 0.0226449 47.6126 0H24.3871C17.9229 0.00453595 11.7222 2.57664 7.14906 7.14906C2.57594 11.7215 0.00452898 17.9226 0 24.3871V47.6126C0.00453595 54.0768 2.57664 60.2775 7.14906 64.8506C11.7215 69.4237 17.9231 71.9945 24.3876 71.999ZM2.32334 24.3866C2.32787 18.5348 4.65495 12.928 8.792 8.79064C12.9291 4.65324 18.5358 2.3265 24.388 2.32197H47.6135C53.4653 2.32651 59.0721 4.65359 63.2095 8.79064C67.3469 12.9277 69.6736 18.5345 69.6781 24.3866V35.9994L64.3843 28.4737C62.3159 25.3437 58.8456 23.4248 55.0941 23.3432C51.3381 23.4203 47.8633 25.3392 45.8039 28.4737L32.3087 47.6116L27.0149 40.0633C24.951 36.9242 21.4762 35.0053 17.7247 34.9282C13.9686 35.0099 10.4939 36.9287 8.43445 40.0633L2.39673 48.6821V47.6842L2.32334 24.3866Z" fill="#002365"/>
<path d="M23.4807 25.5479C26.3023 25.5479 28.8426 23.8514 29.9177 21.2476C30.9973 18.6438 30.4031 15.6454 28.4071 13.6539C26.4157 11.6625 23.4172 11.0637 20.8179 12.1433C18.2141 13.2229 16.5131 15.7632 16.5131 18.5803C16.5131 22.427 19.634 25.5479 23.4807 25.5479ZM23.4807 13.9352C25.3587 13.9352 27.0553 15.0647 27.772 16.8021C28.4933 18.5395 28.0941 20.5354 26.7649 21.8646C25.4404 23.1937 23.4399 23.5929 21.7025 22.8716C19.9696 22.1549 18.8355 20.4584 18.8355 18.5804C18.8355 16.0129 20.9178 13.9352 23.4807 13.9352Z" fill="#002365"/>
<path d="M59.2262 46.4507C54.0594 46.4507 49.4007 49.5625 47.423 54.3347C45.4452 59.1114 46.5384 64.6048 50.1946 68.2561C53.8462 71.9123 59.3396 73.0055 64.116 71.0277C68.8881 69.05 72 64.3913 72 59.2245C71.9864 52.1752 66.2755 46.4646 59.2262 46.4507ZM59.2262 69.6762C54.9984 69.6762 51.1879 67.1314 49.5685 63.2257C47.9537 59.3199 48.8473 54.8245 51.8366 51.8352C54.826 48.8458 59.3214 47.9521 63.2271 49.5671C67.1329 51.1865 69.6777 54.997 69.6777 59.2247C69.6641 64.9902 64.9917 69.6626 59.2262 69.6762Z" fill="#002365"/>
<path d="M60.0377 51.953C59.829 51.7308 59.5342 51.6038 59.2257 51.6038C58.9172 51.6038 58.6224 51.7308 58.4137 51.953L53.0927 57.274C52.6527 57.7231 52.6527 58.4489 53.0927 58.898C53.3105 59.1202 53.6099 59.2427 53.9183 59.2427C54.2268 59.2427 54.5262 59.1202 54.7439 58.898L58.0645 55.5774V65.6796C58.0645 66.3237 58.5862 66.8409 59.2258 66.8409C59.8654 66.8409 60.3871 66.3237 60.3871 65.6796V55.5774L63.7076 58.898C63.9299 59.1202 64.2293 59.2472 64.5423 59.2472C65.0095 59.2427 65.4268 58.9569 65.6038 58.5305C65.7807 58.0996 65.6809 57.6051 65.3588 57.274L60.0377 51.953Z" fill="#002365"/>
</svg>
